<svg width="36" height="31" viewBox="0 0 36 31" fill="none" xmlns="http://www.w3.org/2000/svg">
<path d="M29.6668 11.668V1.66797M24.6668 6.66797H34.6668M24.6668 30.0013V28.0013C24.6668 25.201 24.6668 23.8009 24.1219 22.7313C23.6425 21.7905 22.8776 21.0256 21.9368 20.5463C20.8672 20.0013 19.4671 20.0013 16.6668 20.0013H9.3335C6.53323 20.0013 5.1331 20.0013 4.06354 20.5463C3.12273 21.0256 2.35783 21.7905 1.87846 22.7313C1.3335 23.8009 1.3335 25.201 1.3335 28.0013V30.0013M18.8335 7.5013C18.8335 10.723 16.2218 13.3346 13.0002 13.3346C9.7785 13.3346 7.16683 10.723 7.16683 7.5013C7.16683 4.27964 9.7785 1.66797 13.0002 1.66797C16.2218 1.66797 18.8335 4.27964 18.8335 7.5013Z" stroke="black" stroke-width="2" stroke-linecap="round" stroke-linejoin="round"/>
</svg>
