<svg width="30" height="36" viewBox="0 0 30 36" fill="none" xmlns="http://www.w3.org/2000/svg">
<path d="M18.3332 1.78125V8.66549C18.3332 9.5989 18.3332 10.0656 18.5148 10.4221C18.6746 10.7357 18.9296 10.9907 19.2432 11.1505C19.5997 11.3321 20.0664 11.3321 20.9998 11.3321H27.8841M21.6665 19.6654H8.33317M21.6665 26.332H8.33317M11.6665 12.9987H8.33317M18.3332 1.33203H9.6665C6.86624 1.33203 5.46611 1.33203 4.39655 1.877C3.45574 2.35637 2.69084 3.12127 2.21147 4.06208C1.6665 5.13164 1.6665 6.53177 1.6665 9.33203V26.6654C1.6665 29.4656 1.6665 30.8658 2.21147 31.9353C2.69084 32.8761 3.45574 33.641 4.39655 34.1204C5.46611 34.6654 6.86624 34.6654 9.6665 34.6654H20.3332C23.1334 34.6654 24.5336 34.6654 25.6031 34.1204C26.5439 33.641 27.3088 32.8761 27.7882 31.9353C28.3332 30.8658 28.3332 29.4656 28.3332 26.6654V11.332L18.3332 1.33203Z" stroke="black" stroke-width="2" stroke-linecap="round" stroke-linejoin="round"/>
</svg>
