<?xml version="1.0" encoding="UTF-8"?>
<svg xmlns="http://www.w3.org/2000/svg" xmlns:xlink="http://www.w3.org/1999/xlink" width="16px" height="16px" viewBox="0 0 16 16" version="1.1">
<g id="surface1">
<path style="fill:none;stroke-width:2;stroke-linecap:butt;stroke-linejoin:miter;stroke:rgb(0%,0%,0%);stroke-opacity:1;stroke-miterlimit:10;" d="M 30.996094 15 L 47.003906 15 " transform="matrix(0.333333,0,0,0.333333,0,0)"/>
<path style="fill:none;stroke-width:2;stroke-linecap:butt;stroke-linejoin:miter;stroke:rgb(0%,0%,0%);stroke-opacity:1;stroke-miterlimit:10;" d="M 39 23.003906 L 39 6.996094 " transform="matrix(0.333333,0,0,0.333333,0,0)"/>
<path style="fill:none;stroke-width:2;stroke-linecap:butt;stroke-linejoin:miter;stroke:rgb(0%,0%,0%);stroke-opacity:1;stroke-miterlimit:10;" d="M 27 12.398438 C 27.105469 8.402344 23.894531 5.003906 19.804688 5.003906 C 19.699219 5.003906 19.605469 5.003906 19.5 5.003906 C 15.398438 5.003906 11.800781 8.296875 12 12.398438 C 12 13.195312 12.796875 17.402344 12.796875 17.402344 C 13.394531 21 15.796875 24 19.394531 24 C 23.003906 24 25.394531 21 26.097656 17.402344 C 26.097656 17.402344 26.894531 13.300781 27 12.398438 Z M 27 12.398438 " transform="matrix(0.333333,0,0,0.333333,0,0)"/>
<path style="fill:none;stroke-width:2;stroke-linecap:butt;stroke-linejoin:miter;stroke:rgb(0%,0%,0%);stroke-opacity:1;stroke-miterlimit:10;" d="M 37.898438 42.996094 L 0.996094 42.996094 L 1.605469 35.800781 C 2.003906 33.105469 4.699219 31.195312 7.5 30.703125 L 19.5 29.097656 L 31.605469 30.703125 C 34.699219 31.300781 37.394531 33 37.605469 36.105469 Z M 37.898438 42.996094 " transform="matrix(0.333333,0,0,0.333333,0,0)"/>
</g>
</svg>
