<svg width="26" height="26" viewBox="0 0 26 26" fill="none" xmlns="http://www.w3.org/2000/svg">
<g clip-path="url(#clip0_1585_3729)">
<path d="M21.8726 15.2317L20.6485 13.195C20.3776 12.7508 20.1393 11.895 20.1393 11.375V9.34916C20.1393 5.41666 16.9435 2.22083 13.0218 2.22083C9.08931 2.23166 5.89347 5.41666 5.89347 9.34916V11.3642C5.89347 11.8842 5.65514 12.74 5.39514 13.1842L4.17097 15.2208C3.70514 16.0117 3.5968 16.9108 3.8893 17.6908C4.1818 18.4817 4.84264 19.11 5.70931 19.3917C6.87931 19.7817 8.06014 20.0633 9.26264 20.2692C9.38181 20.2908 9.50097 20.3017 9.62014 20.3233C9.77181 20.345 9.9343 20.3667 10.0968 20.3883C10.3785 20.4317 10.6601 20.4642 10.9526 20.4858C11.6351 20.5508 12.3285 20.5833 13.0218 20.5833C13.7043 20.5833 14.3868 20.5508 15.0585 20.4858C15.3076 20.4642 15.5568 20.4425 15.7951 20.41C15.9901 20.3883 16.1851 20.3667 16.3801 20.3342C16.4993 20.3233 16.6185 20.3017 16.7376 20.28C17.951 20.085 19.1535 19.7817 20.3235 19.3917C21.1576 19.11 21.7968 18.4817 22.1001 17.68C22.4035 16.8675 22.3168 15.9792 21.8726 15.2317ZM13.8126 10.8333C13.8126 11.2883 13.4443 11.6567 12.9893 11.6567C12.5343 11.6567 12.166 11.2883 12.166 10.8333V7.47499C12.166 7.01999 12.5343 6.65166 12.9893 6.65166C13.4443 6.65166 13.8126 7.01999 13.8126 7.47499V10.8333Z" fill="#A5A6A9"/>
<path d="M16.0657 21.6775C15.6107 22.9342 14.4082 23.8334 12.9998 23.8334C12.144 23.8334 11.299 23.4867 10.7032 22.8692C10.3565 22.5442 10.0965 22.1109 9.94482 21.6667C10.0857 21.6884 10.2265 21.6992 10.3782 21.7209C10.6273 21.7534 10.8873 21.7859 11.1473 21.8075C11.7648 21.8617 12.3932 21.8942 13.0215 21.8942C13.639 21.8942 14.2565 21.8617 14.8632 21.8075C15.0907 21.7859 15.3182 21.775 15.5348 21.7425C15.7082 21.7209 15.8815 21.6992 16.0657 21.6775Z" fill="#A5A6A9"/>
</g>
<defs>
<clipPath id="clip0_1585_3729">
<rect width="26" height="26" fill="white"/>
</clipPath>
</defs>
</svg>
