<svg width="26" height="27" viewBox="0 0 26 27" fill="none" xmlns="http://www.w3.org/2000/svg">
<g clip-path="url(#clip0_1585_3318)">
<path d="M21.8724 16.2317L20.6482 14.195C20.3774 13.7508 20.1391 12.895 20.1391 12.375V10.3492C20.1391 6.41666 16.9432 3.22083 13.0216 3.22083C9.08906 3.23166 5.89323 6.41666 5.89323 10.3492V12.3642C5.89323 12.8842 5.65489 13.74 5.39489 14.1842L4.17073 16.2208C3.70489 17.0117 3.59656 17.9108 3.88906 18.6908C4.18156 19.4817 4.84239 20.11 5.70906 20.3917C6.87906 20.7817 8.05989 21.0633 9.26239 21.2692C9.38156 21.2908 9.50073 21.3017 9.61989 21.3233C9.77156 21.345 9.93406 21.3667 10.0966 21.3883C10.3782 21.4317 10.6599 21.4642 10.9524 21.4858C11.6349 21.5508 12.3282 21.5833 13.0216 21.5833C13.7041 21.5833 14.3866 21.5508 15.0582 21.4858C15.3074 21.4642 15.5566 21.4425 15.7949 21.41C15.9899 21.3883 16.1849 21.3667 16.3799 21.3342C16.4991 21.3233 16.6182 21.3017 16.7374 21.28C17.9507 21.085 19.1532 20.7817 20.3232 20.3917C21.1574 20.11 21.7966 19.4817 22.0999 18.68C22.4032 17.8675 22.3166 16.9792 21.8724 16.2317ZM13.8124 11.8333C13.8124 12.2883 13.4441 12.6567 12.9891 12.6567C12.5341 12.6567 12.1657 12.2883 12.1657 11.8333V8.47499C12.1657 8.01999 12.5341 7.65166 12.9891 7.65166C13.4441 7.65166 13.8124 8.01999 13.8124 8.47499V11.8333Z" fill="#A5A6A9"/>
<path d="M16.0659 22.6775C15.6109 23.9342 14.4084 24.8334 13.0001 24.8334C12.1442 24.8334 11.2992 24.4867 10.7034 23.8692C10.3567 23.5442 10.0967 23.1109 9.94507 22.6667C10.0859 22.6884 10.2267 22.6992 10.3784 22.7209C10.6276 22.7534 10.8876 22.7859 11.1476 22.8075C11.7651 22.8617 12.3934 22.8942 13.0217 22.8942C13.6392 22.8942 14.2567 22.8617 14.8634 22.8075C15.0909 22.7859 15.3184 22.775 15.5351 22.7425C15.7084 22.7209 15.8817 22.6992 16.0659 22.6775Z" fill="#A5A6A9"/>
</g>
<circle cx="18.5" cy="4.5" r="3.5" fill="#FF754C" stroke="white"/>
<defs>
<clipPath id="clip0_1585_3318">
<rect width="26" height="26" fill="white" transform="translate(0 1)"/>
</clipPath>
</defs>
</svg>
