<svg width="19" height="21" viewBox="0 0 19 21" fill="none" xmlns="http://www.w3.org/2000/svg">
<path d="M18.5 15.207V16.832H1V15.207C1 14.082 1.45703 13.0391 2.20703 12.25L3.91797 10.5391C4.70703 9.75001 5.125 8.70704 5.125 7.58204V5.58204C5.125 3.03906 7.16407 1 9.70704 1C12.25 1 14.293 3.03906 14.293 5.58204V7.62501C14.293 8.75001 14.75 9.78907 15.5 10.582L17.207 12.2891C18.043 13.0391 18.5 14.125 18.5 15.207Z" fill="black" stroke="black" stroke-width="0.833334" stroke-miterlimit="10"/>
<path d="M7.25001 16.832V17.6641C7.25001 19.0391 8.37501 20.1641 9.75001 20.1641C11.125 20.1641 12.25 19.0391 12.25 17.6641V16.832" stroke="black" stroke-width="0.833334" stroke-miterlimit="10"/>
</svg>
