<svg width="58" height="66" viewBox="0 0 58 66" fill="none" xmlns="http://www.w3.org/2000/svg">
<path d="M29.5 65.125C33.9434 65.125 37.498 61.5703 37.498 57H21.375C21.375 61.5703 24.9297 65.125 29.5 65.125ZM56.7949 46.209C54.3828 43.543 49.6855 39.6074 49.6855 26.5312C49.6855 16.7559 42.8301 8.88477 33.4355 6.85352V4.1875C33.4355 2.0293 31.6582 0.125 29.5 0.125C27.2148 0.125 25.4375 2.0293 25.4375 4.1875V6.85352C16.043 8.88477 9.1875 16.7559 9.1875 26.5312C9.1875 39.6074 4.49023 43.543 2.07812 46.209C1.31641 46.9707 0.935547 47.9863 1.0625 48.875C1.0625 51.0332 2.58594 52.9375 5.125 52.9375H53.748C56.2871 52.9375 57.8105 51.0332 57.9375 48.875C57.9375 47.9863 57.5566 46.9707 56.7949 46.209Z" fill="black"/>
</svg>
