<?xml version="1.0" encoding="UTF-8"?>
<svg xmlns="http://www.w3.org/2000/svg" xmlns:xlink="http://www.w3.org/1999/xlink" width="20px" height="20px" viewBox="0 0 20 20" version="1.1">
<g id="surface1">
<path style="fill:none;stroke-width:4;stroke-linecap:butt;stroke-linejoin:miter;stroke:rgba(0,0,0,0.5);stroke-opacity:1;stroke-miterlimit:10;" d="M 45 35.1 L 45 39 L 3 39 L 3 35.1 C 3 32.4 4.096875 29.896875 5.896875 28.003125 L 10.003125 23.896875 C 11.896875 22.003125 12.9 19.5 12.9 16.8 L 12.9 12 C 12.9 5.896875 17.79375 1.003125 23.896875 1.003125 C 30 1.003125 34.903125 5.896875 34.903125 12 L 34.903125 16.903125 C 34.903125 19.603125 36 22.096875 37.8 24 L 41.896875 28.096875 C 43.903125 29.896875 45 32.503125 45 35.1 Z M 45 35.1 " transform="matrix(0.416667,0,0,0.416667,0,0)"/>
<path style="fill:none;stroke-width:4;stroke-linecap:butt;stroke-linejoin:miter;stroke:rgba(0,0,0,0.5);stroke-opacity:1;stroke-miterlimit:10;" d="M 18 39 L 18 40.996875 C 18 44.296875 20.7 46.996875 24 46.996875 C 27.3 46.996875 30 44.296875 30 40.996875 L 30 39 " transform="matrix(0.416667,0,0,0.416667,0,0)"/>
</g>
</svg>
