<svg width="14" height="14" viewBox="0 0 14 14" fill="none" xmlns="http://www.w3.org/2000/svg">
<path d="M7.00008 12.8334C10.2217 12.8334 12.8334 10.2217 12.8334 7.00002C12.8334 3.77836 10.2217 1.16669 7.00008 1.16669C3.77842 1.16669 1.16675 3.77836 1.16675 7.00002C1.16675 10.2217 3.77842 12.8334 7.00008 12.8334Z" stroke="#000" stroke-width="2" stroke-linecap="round" stroke-linejoin="round"/>
<path d="M7 10.5C8.933 10.5 10.5 8.933 10.5 7C10.5 5.067 8.933 3.5 7 3.5C5.067 3.5 3.5 5.067 3.5 7C3.5 8.933 5.067 10.5 7 10.5Z" stroke="#000" stroke-width="2" stroke-linecap="round" stroke-linejoin="round"/>
<path d="M6.99992 8.16671C7.64425 8.16671 8.16659 7.64437 8.16659 7.00004C8.16659 6.35571 7.64425 5.83337 6.99992 5.83337C6.35559 5.83337 5.83325 6.35571 5.83325 7.00004C5.83325 7.64437 6.35559 8.16671 6.99992 8.16671Z" stroke="#000" stroke-width="2" stroke-linecap="round" stroke-linejoin="round"/>
</svg>
