<svg width="32" height="32" viewBox="0 0 32 32" fill="none" xmlns="http://www.w3.org/2000/svg">
<path fill-rule="evenodd" clip-rule="evenodd" d="M6.66496 0H25.3338C29.0163 0 32 3.21024 32 7.17056V24.8294C32 28.7898 29.0163 32 25.335 32H6.66496C2.98368 32 0 28.7898 0 24.8294V7.17056C0 3.21024 2.98368 0 6.66496 0Z" fill="#0052FF"/>
<path fill-rule="evenodd" clip-rule="evenodd" d="M15.994 4.63428C22.2711 4.63428 27.3591 9.72228 27.3591 15.9994C27.3591 22.2765 22.2711 27.3645 15.994 27.3645C9.71691 27.3645 4.62891 22.2765 4.62891 15.9994C4.62891 9.72228 9.71691 4.63428 15.994 4.63428Z" fill="#F1F1F1"/>
<path fill-rule="evenodd" clip-rule="evenodd" d="M13.2044 12.3672H18.8018C19.2626 12.3672 19.6351 12.7691 19.6351 13.2632V18.7352C19.6351 19.2305 19.2613 19.6312 18.8018 19.6312H13.2044C12.7436 19.6312 12.3711 19.2293 12.3711 18.7352V13.2632C12.3711 12.7691 12.7449 12.3672 13.2044 12.3672Z" fill="#0052FF"/>
</svg>
