<svg width="16" height="16" viewBox="0 0 16 16" fill="none" xmlns="http://www.w3.org/2000/svg">
<g clip-path="url(#clip0_1853_31107)">
<path d="M11.333 1.33337H4.66634C2.82539 1.33337 1.33301 2.82576 1.33301 4.66671V11.3334C1.33301 13.1743 2.82539 14.6667 4.66634 14.6667H11.333C13.174 14.6667 14.6663 13.1743 14.6663 11.3334V4.66671C14.6663 2.82576 13.174 1.33337 11.333 1.33337Z" stroke="#9D9D9D" stroke-linecap="round" stroke-linejoin="round"/>
<path d="M10.6668 7.57996C10.7491 8.13479 10.6543 8.70143 10.396 9.1993C10.1376 9.69717 9.72889 10.1009 9.22788 10.3531C8.72687 10.6052 8.1591 10.693 7.60532 10.6039C7.05155 10.5148 6.53997 10.2533 6.14336 9.85673C5.74674 9.46012 5.48528 8.94854 5.39618 8.39477C5.30707 7.84099 5.39484 7.27322 5.64701 6.77221C5.89919 6.27119 6.30292 5.86245 6.80079 5.60412C7.29865 5.34579 7.8653 5.25102 8.42013 5.33329C8.98608 5.41721 9.51003 5.68093 9.91459 6.08549C10.3192 6.49006 10.5829 7.01401 10.6668 7.57996Z" stroke="#9D9D9D" stroke-linecap="round" stroke-linejoin="round"/>
<path d="M11.667 4.33337H11.6754" stroke="#9D9D9D" stroke-linecap="round" stroke-linejoin="round"/>
</g>
<defs>
<clipPath id="clip0_1853_31107">
<rect width="16" height="16" fill="white"/>
</clipPath>
</defs>
</svg>
