<svg width="14" height="14" viewBox="0 0 14 14" fill="none" xmlns="http://www.w3.org/2000/svg">
<path d="M5.57887 2.45238C5.61372 2.52517 5.63674 2.60313 5.64705 2.68327L5.83758 5.5904L5.93216 7.0516C5.93314 7.20186 5.95611 7.35115 6.00034 7.49467C6.11456 7.77311 6.38935 7.95008 6.68831 7.93774L11.2438 7.63196C11.4411 7.62862 11.6316 7.70433 11.7734 7.84244C11.8916 7.95752 11.9679 8.10808 11.9919 8.27L12 8.36833C11.8115 11.0471 9.8943 13.2814 7.28933 13.8581C4.68436 14.4349 2.0131 13.2165 0.725836 10.8645C0.354729 10.1812 0.122933 9.43013 0.0440561 8.65539C0.0111051 8.42605 -0.00340403 8.1944 0.000670077 7.9627C-0.00339816 5.09076 1.98956 2.60787 4.77933 2.0093C5.11509 1.95565 5.44425 2.13806 5.57887 2.45238Z" fill="black"/>
<path opacity="0.4" d="M7.5956 0.000529471C10.7942 0.0755094 13.4825 2.19483 14 5.04938L13.9951 5.07044L13.9809 5.10108L13.9829 5.18516C13.9756 5.29655 13.9289 5.40374 13.8485 5.49031C13.7647 5.58049 13.6502 5.6419 13.5241 5.66574L13.4472 5.67546L8.05941 5.99712C7.8802 6.0134 7.70176 5.96016 7.56848 5.85062C7.45742 5.75934 7.38642 5.63613 7.36636 5.50336L7.00472 0.546196C6.99843 0.529434 6.99843 0.511263 7.00472 0.494501C7.00966 0.357859 7.07494 0.2287 7.18597 0.13588C7.297 0.0430589 7.44453 -0.00568801 7.5956 0.000529471Z" fill="black"/>
</svg>
