<svg width="16" height="16" viewBox="0 0 16 16" fill="none" xmlns="http://www.w3.org/2000/svg">
<path d="M4 3.33333H9.33333C9.70152 3.33333 10 3.63181 10 4V4.66667H11.3333V4C11.3333 2.89543 10.4379 2 9.33333 2H4C2.89543 2 2 2.89543 2 4V9.33333C2 10.4379 2.89543 11.3333 4 11.3333H4.66667V10H4C3.63181 10 3.33333 9.70152 3.33333 9.33333V4C3.33333 3.63181 3.63181 3.33333 4 3.33333Z" fill="#7E7F8F"/>
<path fill-rule="evenodd" clip-rule="evenodd" d="M11.9993 5.99996H6.66602C6.29783 5.99996 5.99935 6.29844 5.99935 6.66663V12C5.99935 12.3681 6.29783 12.6666 6.66602 12.6666H11.9993C12.3675 12.6666 12.666 12.3681 12.666 12V6.66663C12.666 6.29844 12.3675 5.99996 11.9993 5.99996ZM6.66602 4.66663C5.56145 4.66663 4.66602 5.56206 4.66602 6.66663V12C4.66602 13.1045 5.56145 14 6.66602 14H11.9993C13.1039 14 13.9993 13.1045 13.9993 12V6.66663C13.9993 5.56206 13.1039 4.66663 11.9993 4.66663H6.66602Z" fill="#7E7F8F"/>
</svg>
