<svg width="36" height="32" viewBox="0 0 36 32" fill="none" xmlns="http://www.w3.org/2000/svg">
<path d="M34.6668 31V27.6667C34.6668 24.5603 32.5422 21.9501 29.6668 21.21M23.8335 1.4846C26.2767 2.47358 28.0002 4.86885 28.0002 7.66667C28.0002 10.4645 26.2767 12.8598 23.8335 13.8487M26.3335 31C26.3335 27.8937 26.3335 26.3406 25.826 25.1154C25.1494 23.4819 23.8516 22.1841 22.2181 21.5075C20.9929 21 19.4398 21 16.3335 21H11.3335C8.22722 21 6.67408 21 5.44894 21.5075C3.81542 22.1841 2.51759 23.4819 1.84097 25.1154C1.3335 26.3406 1.3335 27.8937 1.3335 31M20.5002 7.66667C20.5002 11.3486 17.5154 14.3333 13.8335 14.3333C10.1516 14.3333 7.16683 11.3486 7.16683 7.66667C7.16683 3.98477 10.1516 1 13.8335 1C17.5154 1 20.5002 3.98477 20.5002 7.66667Z" stroke="black" stroke-width="2" stroke-linecap="round" stroke-linejoin="round"/>
</svg>
