<svg width="10" height="10" viewBox="0 0 10 10" fill="none" xmlns="http://www.w3.org/2000/svg">
<path fill-rule="evenodd" clip-rule="evenodd" d="M6.06057 5L9.28032 1.78025C9.57357 1.487 9.57357 1.013 9.28032 0.719754C8.98707 0.426504 8.51307 0.426504 8.21982 0.719754L5.00007 3.9395L1.78032 0.719754C1.48707 0.426504 1.01307 0.426504 0.719815 0.719754C0.426565 1.013 0.426565 1.487 0.719815 1.78025L3.93957 5L0.719815 8.21975C0.426565 8.513 0.426565 8.987 0.719815 9.28025C0.866065 9.4265 1.05807 9.5 1.25007 9.5C1.44207 9.5 1.63407 9.4265 1.78032 9.28025L5.00007 6.0605L8.21982 9.28025C8.36607 9.4265 8.55807 9.5 8.75007 9.5C8.94207 9.5 9.13407 9.4265 9.28032 9.28025C9.57357 8.987 9.57357 8.513 9.28032 8.21975L6.06057 5Z" fill="#AAB6CA"/>
</svg>
