<svg width="18" height="18" viewBox="0 0 18 18" fill="none" xmlns="http://www.w3.org/2000/svg">
<path d="M12.5327 5.46797C11.5577 4.49297 10.2827 4.0013 8.99935 4.0013V9.0013L5.46602 12.5346C7.41602 14.4846 10.5827 14.4846 12.541 12.5346C14.491 10.5846 14.491 7.41797 12.5327 5.46797ZM8.99935 0.667969C4.39935 0.667969 0.666016 4.4013 0.666016 9.0013C0.666016 13.6013 4.39935 17.3346 8.99935 17.3346C13.5993 17.3346 17.3327 13.6013 17.3327 9.0013C17.3327 4.4013 13.5993 0.667969 8.99935 0.667969ZM8.99935 15.668C5.31602 15.668 2.33268 12.6846 2.33268 9.0013C2.33268 5.31797 5.31602 2.33464 8.99935 2.33464C12.6827 2.33464 15.666 5.31797 15.666 9.0013C15.666 12.6846 12.6827 15.668 8.99935 15.668Z" fill="#151515"/>
</svg>
