<svg width="20" height="20" viewBox="0 0 20 20" fill="none" xmlns="http://www.w3.org/2000/svg">
<path fill-rule="evenodd" clip-rule="evenodd" d="M5 8.01001C5 7.45801 5.448 7.01001 6 7.01001C6.552 7.01001 7 7.45801 7 8.01001C7 8.56201 6.552 9.01001 6 9.01001C5.448 9.01001 5 8.56201 5 8.01001ZM10 7.01001C9.448 7.01001 9 7.45801 9 8.01001C9 8.56201 9.448 9.01001 10 9.01001C10.552 9.01001 11 8.56201 11 8.01001C11 7.45801 10.552 7.01001 10 7.01001ZM14 7.01001C13.448 7.01001 13 7.45801 13 8.01001C13 8.56201 13.448 9.01001 14 9.01001C14.552 9.01001 15 8.56201 15 8.01001C15 7.45801 14.552 7.01001 14 7.01001ZM18 13.01C18 13.561 17.551 14.01 17 14.01H6.554C6.011 14.01 5.477 14.158 5.01 14.438L2 16.244V3.01001C2 2.45901 2.449 2.01001 3 2.01001H17C17.551 2.01001 18 2.45901 18 3.01001V13.01ZM17 0.0100098H3C1.346 0.0100098 0 1.35601 0 3.01001V18.01C0 18.37 0.194 18.703 0.507 18.88C0.66 18.967 0.83 19.01 1 19.01C1.178 19.01 1.356 18.963 1.515 18.867L6.039 16.153C6.195 16.059 6.373 16.01 6.554 16.01H17C18.654 16.01 20 14.664 20 13.01V3.01001C20 1.35601 18.654 0.0100098 17 0.0100098Z" fill="#4C4D53"/>
</svg>
