<svg width="20" height="20" viewBox="0 0 20 20" fill="none" xmlns="http://www.w3.org/2000/svg">
<path fill-rule="evenodd" clip-rule="evenodd" d="M12.5357 1.80763C13.7073 0.636062 15.6067 0.636062 16.7783 1.80763L18.1925 3.22185C19.3641 4.39342 19.3641 6.29292 18.1925 7.46449L7.80003 17.857C7.66043 17.9966 7.48263 18.0918 7.28904 18.1305L1.98573 19.1911C1.28601 19.3311 0.669094 18.7142 0.809038 18.0144L1.8697 12.7111C1.90842 12.5175 2.00357 12.3397 2.14317 12.2001L12.5357 1.80763ZM15.3641 3.22185L16.7783 4.63606C17.1688 5.02659 17.1688 5.65975 16.7783 6.05028L15.3641 7.46449L12.5357 4.63607L13.9499 3.22185C14.3404 2.83132 14.9736 2.83132 15.3641 3.22185ZM11.1215 6.05028L3.77148 13.4003L3.06437 16.9358L6.59991 16.2287L13.9499 8.87871L11.1215 6.05028Z" fill="#757D8A"/>
</svg>
