<svg width="16" height="16" viewBox="0 0 16 16" fill="none" xmlns="http://www.w3.org/2000/svg">
<path d="M12.0013 1.83301C12.0013 1.55687 11.7774 1.33301 11.5013 1.33301H10.0013C9.11725 1.33301 8.2694 1.6842 7.64428 2.30932C7.01916 2.93444 6.66797 3.78229 6.66797 4.66634V6.16634C6.66797 6.44248 6.44411 6.66634 6.16797 6.66634H5.16797C4.89183 6.66634 4.66797 6.8902 4.66797 7.16634V8.83301C4.66797 9.10915 4.89183 9.33301 5.16797 9.33301H6.16797C6.44411 9.33301 6.66797 9.55687 6.66797 9.83301V14.1663C6.66797 14.4425 6.89183 14.6663 7.16797 14.6663H8.83463C9.11078 14.6663 9.33464 14.4425 9.33464 14.1663V9.83301C9.33464 9.55687 9.55849 9.33301 9.83464 9.33301H10.9442C11.1737 9.33301 11.3737 9.17686 11.4293 8.95428L11.846 7.28761C11.9249 6.97204 11.6862 6.66634 11.3609 6.66634H9.83464C9.55849 6.66634 9.33464 6.44248 9.33464 6.16634V4.66634C9.33464 4.48953 9.40487 4.31996 9.5299 4.19494C9.65492 4.06991 9.82449 3.99967 10.0013 3.99967H11.5013C11.7774 3.99967 12.0013 3.77582 12.0013 3.49967V1.83301Z" fill="#F1F1F1" stroke="#F1F1F1" stroke-width="0.5" stroke-linecap="round" stroke-linejoin="round"/>
</svg>
