<svg width="24" height="25" viewBox="0 0 24 25" fill="none" xmlns="http://www.w3.org/2000/svg">
<path fill-rule="evenodd" clip-rule="evenodd" d="M13.0252 5.19686C12.363 4.95603 11.6371 4.95603 10.9748 5.19686L3.92618 7.75998L10.9748 10.3231C11.637 10.5639 12.363 10.5639 13.0252 10.3231L20.0738 7.75998L13.0252 5.19686ZM10.2913 3.31727C11.3951 2.91589 12.6049 2.91589 13.7087 3.31727L20.7573 5.8804C22.5127 6.51871 22.5127 9.00126 20.7573 9.63957L13.7087 12.2027C12.6049 12.6041 11.3951 12.6041 10.2913 12.2027L3.24269 9.63957C1.48733 9.00126 1.48735 6.5187 3.24269 5.8804L10.2913 3.31727Z" fill="#6F767E"/>
<path fill-rule="evenodd" clip-rule="evenodd" d="M2.05778 12.405C2.2428 11.8846 2.81464 11.6128 3.33501 11.7978L11.33 14.6405C11.7634 14.7946 12.2366 14.7946 12.67 14.6405L20.665 11.7978C21.1854 11.6128 21.7572 11.8846 21.9422 12.405C22.1272 12.9254 21.8554 13.4972 21.335 13.6822L13.34 16.5249C12.4733 16.8331 11.5267 16.8331 10.66 16.5249L2.66499 13.6822C2.14462 13.4972 1.87276 12.9254 2.05778 12.405Z" fill="#6F767E"/>
<path fill-rule="evenodd" clip-rule="evenodd" d="M2.05778 16.655C2.2428 16.1346 2.81464 15.8628 3.33501 16.0478L11.33 18.8905C11.7634 19.0446 12.2366 19.0446 12.67 18.8905L20.665 16.0478C21.1854 15.8628 21.7572 16.1346 21.9422 16.655C22.1272 17.1754 21.8554 17.7472 21.335 17.9322L13.34 20.7749C12.4733 21.0831 11.5267 21.0831 10.66 20.7749L2.66499 17.9322C2.14462 17.7472 1.87276 17.1754 2.05778 16.655Z" fill="#6F767E"/>
</svg>
