<svg width="14" height="12" viewBox="0 0 14 12" fill="none" xmlns="http://www.w3.org/2000/svg">
<path fill-rule="evenodd" clip-rule="evenodd" d="M7.00003 11.9998C6.8227 11.9998 6.65336 11.9298 6.52803 11.8038L1.35003 6.61717C-0.00730214 5.25717 -0.00730214 3.0445 1.35003 1.6845C2.00536 1.0285 2.8807 0.666504 3.81336 0.666504C4.74603 0.666504 5.62136 1.0285 6.2767 1.6845L7.00003 2.40917L7.7227 1.68517C8.3787 1.0285 9.25403 0.666504 10.1867 0.666504C11.1194 0.666504 11.9947 1.0285 12.65 1.6845C14.0074 3.0445 14.0074 5.25717 12.6507 6.61717L7.47203 11.8045C7.3467 11.9298 7.17736 11.9998 7.00003 11.9998Z" fill="#696974"/>
</svg>
