<svg width="20" height="21" viewBox="0 0 20 21" fill="none" xmlns="http://www.w3.org/2000/svg">
<rect x="1" y="1.01001" width="18" height="18" rx="9" fill="#FF754C"/>
<path fill-rule="evenodd" clip-rule="evenodd" d="M10 14.51C9.86702 14.51 9.74002 14.4575 9.64602 14.363L5.76252 10.473C4.74452 9.45301 4.74452 7.79351 5.76252 6.77351C6.25402 6.28151 6.91052 6.01001 7.61002 6.01001C8.30952 6.01001 8.96602 6.28151 9.45752 6.77351L10 7.31701L10.542 6.77401C11.034 6.28151 11.6905 6.01001 12.39 6.01001C13.0895 6.01001 13.746 6.28151 14.2375 6.77351C15.2555 7.79351 15.2555 9.45301 14.238 10.473L10.354 14.3635C10.26 14.4575 10.133 14.51 10 14.51Z" fill="white"/>
<rect x="1" y="1.01001" width="18" height="18" rx="9" stroke="white" stroke-width="2"/>
</svg>
