<svg width="20" height="20" viewBox="0 0 20 20" fill="none" xmlns="http://www.w3.org/2000/svg">
<rect x="1" y="1" width="18" height="18" rx="9" fill="#FFCE73"/>
<path d="M12.0833 5.83337H7.91659C6.76659 5.83337 5.83325 6.76254 5.83325 7.90837V10.4V10.8167C5.83325 11.9625 6.76659 12.8917 7.91659 12.8917H8.54159C8.65409 12.8917 8.80409 12.9667 8.87492 13.0584L9.49992 13.8875C9.77492 14.2542 10.2249 14.2542 10.4999 13.8875L11.1249 13.0584C11.2041 12.9542 11.3291 12.8917 11.4583 12.8917H12.0833C13.2333 12.8917 14.1666 11.9625 14.1666 10.8167V7.90837C14.1666 6.76254 13.2333 5.83337 12.0833 5.83337ZM10.4166 10.7292H7.91659C7.74575 10.7292 7.60409 10.5875 7.60409 10.4167C7.60409 10.2459 7.74575 10.1042 7.91659 10.1042H10.4166C10.5874 10.1042 10.7291 10.2459 10.7291 10.4167C10.7291 10.5875 10.5874 10.7292 10.4166 10.7292ZM12.0833 8.64587H7.91659C7.74575 8.64587 7.60409 8.50421 7.60409 8.33337C7.60409 8.16254 7.74575 8.02087 7.91659 8.02087H12.0833C12.2541 8.02087 12.3958 8.16254 12.3958 8.33337C12.3958 8.50421 12.2541 8.64587 12.0833 8.64587Z" fill="white"/>
<rect x="1" y="1" width="18" height="18" rx="9" stroke="white" stroke-width="2"/>
</svg>
