<svg width="16" height="16" viewBox="0 0 16 16" fill="none" xmlns="http://www.w3.org/2000/svg">
<path d="M9.04238 1.40595L9.04239 1.40594L9.04001 1.40393C8.46245 0.917131 7.54476 0.915304 6.9717 1.40531L5.91846 2.30524L5.91845 2.30523L5.91686 2.30661C5.85241 2.36247 5.74245 2.42505 5.61134 2.47377C5.4802 2.5225 5.35672 2.54665 5.27334 2.54665H4.12C3.24765 2.54665 2.53334 3.26097 2.53334 4.13332V5.27998C2.53334 5.36317 2.50929 5.48499 2.46116 5.61501C2.41341 5.74401 2.35198 5.85398 2.29698 5.92033L1.39798 6.97915L1.39798 6.97915L1.39702 6.98028C0.916552 7.55188 0.916552 8.46142 1.39702 9.03302L1.39702 9.03302L1.39798 9.03415L2.2962 10.092C2.29646 10.0923 2.29671 10.0927 2.29697 10.093C2.35197 10.1593 2.4134 10.2693 2.46116 10.3983C2.50929 10.5283 2.53334 10.6501 2.53334 10.7333V11.8733C2.53334 12.7457 3.24765 13.46 4.12 13.46H5.27334C5.36046 13.46 5.48394 13.4843 5.61334 13.5327C5.74275 13.581 5.85165 13.6435 5.91686 13.7L5.91763 13.7007L6.97096 14.6074L6.97095 14.6074L6.97333 14.6094C7.55089 15.0962 8.46858 15.098 9.04164 14.608L9.04238 14.6074L10.0957 13.7007L10.0965 13.7C10.1609 13.6442 10.2709 13.5816 10.402 13.5329C10.5331 13.4841 10.6566 13.46 10.74 13.46H11.8733C12.7457 13.46 13.46 12.7457 13.46 11.8733V10.74C13.46 10.6529 13.4844 10.5294 13.5327 10.4C13.581 10.2706 13.6435 10.1617 13.7 10.0965L13.7007 10.0957L14.6074 9.04236L14.6074 9.04237L14.6094 9.03999C15.0962 8.46244 15.098 7.54474 14.608 6.97169L14.6074 6.97094L13.7007 5.91761L13.7 5.91684C13.6442 5.85239 13.5816 5.74243 13.5329 5.61132C13.4842 5.48018 13.46 5.3567 13.46 5.27332V4.13998C13.46 3.26763 12.7457 2.55332 11.8733 2.55332H10.74C10.6529 2.55332 10.5294 2.52897 10.4 2.48063C10.2706 2.43227 10.1617 2.36979 10.0965 2.31328L10.0957 2.31261L9.04238 1.40595Z" fill="#FFCE73" stroke="white" stroke-width="0.6" stroke-linecap="round" stroke-linejoin="round"/>
<path d="M5.58667 7.99999L7.19334 9.61332L10.4133 6.38666" stroke="#191A1F" stroke-linecap="round" stroke-linejoin="round"/>
</svg>
