<svg width="24" height="25" viewBox="0 0 24 25" fill="none" xmlns="http://www.w3.org/2000/svg">
<path d="M12.7071 7.8029C12.3166 7.41238 11.6834 7.41238 11.2929 7.8029C10.9024 8.19343 10.9024 8.82659 11.2929 9.21712L13.0858 11.01H4C3.44772 11.01 3 11.4577 3 12.01C3 12.5623 3.44772 13.01 4 13.01H13.0858L11.2929 14.8029C10.9024 15.1934 10.9024 15.8266 11.2929 16.2171C11.6834 16.6076 12.3166 16.6076 12.7071 16.2171L15.5 13.4242C16.2811 12.6432 16.281 11.3768 15.5 10.5958L12.7071 7.8029Z" fill="#FF754C"/>
<path fill-rule="evenodd" clip-rule="evenodd" d="M21 5.01001C21 3.35316 19.6569 2.01001 18 2.01001H12C10.3431 2.01001 9 3.35316 9 5.01001V6.01001C9 6.56229 9.44771 7.01001 10 7.01001C10.5523 7.01001 11 6.56229 11 6.01001V5.01001C11 4.45773 11.4477 4.01001 12 4.01001H18C18.5523 4.01001 19 4.45773 19 5.01001V19.01C19 19.5623 18.5523 20.01 18 20.01H12C11.4477 20.01 11 19.5623 11 19.01V18.01C11 17.4577 10.5523 17.01 10 17.01C9.44771 17.01 9 17.4577 9 18.01V19.01C9 20.6669 10.3431 22.01 12 22.01H18C19.6569 22.01 21 20.6669 21 19.01V5.01001Z" fill="#FF754C"/>
</svg>
