<?xml version="1.0" encoding="UTF-8"?>
<svg width="1201px" height="294px" viewBox="0 0 1201 294" version="1.1" xmlns="http://www.w3.org/2000/svg" xmlns:xlink="http://www.w3.org/1999/xlink">
    <!-- Generator: Sketch 56.3 (81716) - https://sketch.com -->
    <title>mona-logo-new-black</title>
    <desc>Created with Sketch.</desc>
    <g id="Page-1" stroke="none" stroke-width="1" fill="none" fill-rule="evenodd">
        <g id="mona-logo-new-black" fill="#000000" fill-rule="nonzero">
            <path d="M879.2,286.8 C893.2,230.64 847.03,203.92 793.6,172.99 C740.74,142.39 680.82,107.71 671,36.18 L670,36.25 L670,103.33 C670,264.18 683.94,278.03 690.09,283.51 L690.09,286.8 L642.86,286.8 L642.86,283.51 C650.07,276.96 657.86,260.19 661.27,187.51 L661.45,183.83 L660.3,187.33 C651.45,214.33 634.24,235.52 609.15,250.26 C585.06,264.42 554.15,271.9 519.6,271.9 C468.13,271.94 425,256 398,227 L396,224.87 L409.72,256.53 C416.11,270.53 423.45,276.75 431.22,283.35 L431.37,283.48 L431.37,286.76 L380.19,286.76 L380.19,283.4 C383.39,278.68 380.26,270.23 376.95,261.29 C376.13,259.07 375.28,256.77 374.54,254.57 L286,48.39 L222.25,286.8 L202.92,286.8 L142,71.06 C139.8,62.63 137.26,54.16 135,46.68 L134,43.22 L112.51,93.09 C81.83,163.63 61.64,215.53 52.51,247.35 C45.13,273 46.51,280.26 48.22,283.42 L48.22,286.8 L1,286.8 L1,283.54 C27.4,264.72 72.1,169.64 105,93.08 L130.79,33.45 L130.72,33.27 C125.28,18.27 119.54,9.06 112.72,4.27 L112.72,1 L152,1 L223,257.48 L291.3,1 L299,1 L368.36,161.07 L368.07,157.95 C367.65,153.43 367.44,148.83 367.44,144.3 C367.44,104.67 382.44,71.68 410.93,48.89 C437.93,27.28 475.21,15.89 518.78,15.89 C554.6,15.89 586.52,23.78 611.09,38.71 C636.88,54.33 654,76.78 662,105.41 L663,108.92 L663,28.62 C663,16.76 662.23,10.83 655,4.29 L655,1 L702.21,1 C702.43,85.6 760.21,118.22 816.08,149.78 C860.26,174.73 901.99,198.29 910.69,246.02 L911.69,245.93 L911.69,184.47 C911.69,23.62 897.75,9.77 891.6,4.29 L891.6,1 L938.81,1 L938.81,4.29 C932.66,9.77 918.72,23.62 918.72,184.47 L918.72,286.8 L879.2,286.8 Z M519.19,51 C481.1,51 446.21,58.45 421,72 C390.61,88.25 374.54,113.13 374.54,143.94 C374.54,175.37 390.12,199.62 420.85,216.03 C445.97,229.44 480.91,236.83 519.24,236.83 C557.24,236.83 591.44,229.44 615.64,216.03 C645.03,199.74 659.93,175.48 659.93,143.94 C659.93,112.4 645,88.1 615.59,71.81 C591.39,58.4 557.16,51 519.19,51 Z" id="Shape" stroke="#000000"></path>
            <path d="M938.21,1.5 L938.21,4.07 C931.92,9.7 918.12,24.83 918.12,184.47 L918.12,286.3 L879.83,286.3 C886.02,260.79 880.31,239.72 861.93,220.08 C845.34,202.36 820.33,187.89 793.85,172.56 C766.85,156.96 739.04,140.83 716.31,119.45 C690.52,95.18 675.85,67.93 671.47,36.11 L669.47,36.25 L669.47,103.33 C669.47,262.97 683.27,278.1 689.56,283.73 L689.56,286.3 L643.36,286.3 L643.36,283.73 C648.29,279.31 657.94,268.97 661.77,187.58 L662.12,180.21 L659.82,187.21 C651.01,214.11 633.88,235.21 608.9,249.86 C584.9,263.97 554.01,271.43 519.6,271.43 C468.27,271.43 425.22,255.54 398.39,226.69 L394.39,222.43 L396.71,227.77 L409.28,256.77 C415.7,270.77 423.07,277.1 430.88,283.77 L430.88,286.32 L380.69,286.32 L380.69,283.61 C383.89,278.66 380.74,270.16 377.42,261.17 C376.6,258.96 375.75,256.67 375.01,254.47 L375.01,254.47 L375.01,254.47 L287,49.51 L285.86,46.86 L285.12,49.65 L221.86,286.3 L203.3,286.3 L142.46,70.94 C140.25,62.5 137.71,54.02 135.46,46.54 L134.82,44.4 L134,41.76 L132.91,44.29 L112.02,92.89 C81.37,163.45 61.17,215.37 52,247.21 C44.73,272.5 45.8,280.01 47.69,283.54 L47.69,286.3 L1.5,286.3 L1.5,283.8 C28,264.55 72.62,169.69 105.45,93.28 L131.16,33.84 L131.32,33.47 L131.18,33.1 C125.76,18.17 120,8.9 113.17,4 L113.17,1.5 L151.58,1.5 L222.07,255.84 L223.07,259.39 L224.02,255.83 L291.68,1.5 L298.68,1.5 L366.68,158.39 L369.18,164.14 L368.6,157.9 C368.18,153.4 367.97,148.82 367.97,144.3 C367.97,104.82 382.97,71.97 411.28,49.3 C424.65,38.59 440.74,30.3 459.11,24.74 C477.31,19.19 497.4,16.38 518.81,16.38 C554.54,16.38 586.37,24.25 610.87,39.13 C622.999754,46.4006188 633.682275,55.8491068 642.38,67 C651.180287,78.4861628 657.666956,91.571573 661.48,105.53 L663.48,112.53 L663.48,28.62 C663.48,16.69 662.71,10.69 655.48,4.07 L655.48,1.5 L701.69,1.5 C702.14,86.02 759.93,118.65 815.82,150.21 C859.89,175.1 901.52,198.61 910.17,246.11 L912.17,245.93 L912.17,184.47 C912.09,24.83 898.29,9.7 892,4.07 L892,1.5 L938.21,1.5 L938.21,1.5 Z M519.21,237.29 C557.21,237.29 591.57,229.88 615.84,216.43 C645.41,200.04 660.39,175.64 660.39,143.9 C660.39,112.16 645.39,87.76 615.84,71.38 C591.57,57.92 557.25,50.51 519.21,50.51 C481.17,50.51 446,58 420.71,71.52 C390.15,87.87 374,112.9 374,143.9 C374,175.08 390.11,200.16 420.57,216.43 C445.76,229.88 480.79,237.29 519.21,237.29 L519.21,237.29 Z M939.21,0.5 L891,0.5 L891,4.5 C898.23,10.92 911.09,28.6 911.09,184.5 L911.09,245.96 C891.41,137.88 702.62,152.74 702.62,0.5 L654.41,0.5 L654.41,4.5 C661.64,10.92 662.41,16.55 662.41,28.6 L662.41,105.26 C646.01,46.41 590.5,15.34 518.76,15.34 C432.83,15.36 367,60.75 367,144.3 C367,148.99 367.22,153.55 367.63,157.99 L299.35,0.5 L290.92,0.5 L223,255.57 L152.34,0.5 L112.17,0.5 L112.17,4.5 C119.8,9.72 125.42,20.16 130.24,33.42 L104.53,92.89 C34.64,255.57 8.53,277.66 0.5,283.29 L0.5,287.29 L48.7,287.29 L48.7,283.29 C45.49,277.66 41.87,256.77 112.97,93.29 L133.86,44.69 C136.27,52.69 139.08,61.96 141.49,71.2 L202.49,287.3 L222.58,287.3 L286.1,49.91 L374.1,254.76 C377.71,265.61 383.74,277.66 379.72,283.29 L379.72,287.29 L431.94,287.29 L431.94,283.29 C423.94,276.46 416.67,270.43 410.25,256.37 L397.69,227.37 C425.27,257.02 469.11,272.43 519.63,272.43 C589.01,272.43 642.63,242.85 660.8,187.52 C657.09,266.41 648.03,278.26 642.39,283.28 L642.39,287.28 L690.6,287.28 L690.6,283.28 C683.37,276.85 670.51,259.17 670.51,103.28 L670.51,36.25 C690.19,179.25 907.51,174.43 878.58,287.3 L919.15,287.3 L919.15,184.47 C919.12,28.62 932,10.94 939.21,4.52 L939.21,0.5 Z M519.21,236.29 C449.71,236.29 375,211.78 375,143.9 C375,76.42 450.12,51.51 519.21,51.51 C588.7,51.51 659.39,76.01 659.39,143.9 C659.39,211.79 588.7,236.29 519.21,236.29 L519.21,236.29 Z" id="Shape"></path>
            <path d="M960.58,293.28 C959.95,293.28 959.33,293.28 958.71,293.28 C946.26,293.28 938.52,290.15 935.04,283.71 C926.04,267.1 947.09,230.79 971.16,194.03 C1010.81,133.28 1050.66,65.03 1045.55,19.38 L1045.55,19.26 L1045.49,19.16 C1041.91133,13.2840612 1037.14242,8.22220405 1031.49,4.3 L1031.49,1 L1072.84,1 L1182,262.19 C1186.04915,270.748549 1192.2516,278.108796 1200,283.55 L1200,286.8 L1146.77,286.8 L1146.77,283.45 C1152.64,275.45 1148.98,264.5 1146.56,257.25 L1146.35,256.62 L1053.21,37.14 L1053,39 C1047.46,85.29 1010.53,145.89 976.35,199.06 C947.8,242.79 937.35,268.4 943.43,279.65 C945.78,283.99 950.64,286.2 957.89,286.2 C981.12,285.11 1006.5,246.9 1028.89,213.2 C1045.89,187.55 1062.01,163.33 1072.74,163.33 C1073.78284,163.329621 1074.81093,163.576362 1075.74,164.05 L1099,175.66 C1106,181.52 1110,192.93 1113.52,203.08 L1110.79,204.29 C1108.09,197.9 1104.59,193.03 1101.15,190.88 C1100.01412,190.244201 1098.73165,189.916687 1097.43,189.93 C1087.33,189.93 1070.74,207.53 1051.54,227.93 C1024.1,257 990,293.28 960.58,293.28 Z" id="Path"></path>
            <path d="M1072.5,1.5 L1181.5,262.43 C1185.5635,270.982044 1191.76296,278.342185 1199.5,283.8 L1199.5,286.3 L1147.27,286.3 L1147.27,283.61 C1153.16,275.42 1149.48,264.4 1147.03,257.09 L1146.82,256.46 L1146.82,256.46 L1146.82,256.46 L1054.4,38.67 L1052.94,35.21 L1052.49,38.94 C1046.96,85.12 1010.07,145.67 975.93,198.79 C947.26,242.69 936.79,268.46 942.98,279.89 C945.42,284.4 950.43,286.69 957.92,286.69 L957.92,286.69 C981.38,285.6 1006.83,247.27 1029.28,213.46 C1046.28,187.92 1062.28,163.81 1072.71,163.81 C1073.68685,163.804734 1074.65062,164.034531 1075.52,164.48 L1098.71,176.08 C1105.48,181.78 1109.43,192.85 1112.88,202.81 L1111.04,203.63 C1108.32,197.37 1104.84,192.63 1101.37,190.43 C1100.14694,189.752898 1098.7678,189.408114 1097.37,189.43 C1087.05,189.43 1071.19,206.26 1051.12,227.57 C1023.74,256.62 989.67,292.78 960.52,292.78 C959.9,292.78 959.28,292.78 958.68,292.78 L958.68,292.78 C946.45,292.78 938.86,289.73 935.47,283.47 C926.59,267.05 948.73,229.18 971.56,194.3 C988.43,168.47 1009.73,134.72 1024.9,102.81 C1041.5,67.88 1048.42,40.58 1046.03,19.32 L1046.03,19.09 L1045.9,18.89 C1042.33977,13.0237195 1037.60786,7.9547921 1032,4 L1032,1.5 L1072.51,1.5 L1072.5,1.5 Z M1073.18,0.5 L1031,0.5 L1031,4.5 C1036.67549,8.41418262 1041.46556,13.4768049 1045.06,19.36 C1050.28,65.96 1008.51,135.85 970.75,193.69 C934.2,249.52 912.5,293.69 958.75,293.69 C959.37,293.69 960,293.69 960.64,293.69 C1010.76,293.69 1073.35,190.34 1097.49,190.34 C1098.6965,190.321534 1099.88653,190.621627 1100.94,191.21 C1104.16,193.21 1107.77,198.04 1110.58,204.87 L1114.2,203.26 C1110.58,192.82 1106.57,181.17 1099.34,175.14 L1076,163.58 C1074.98977,163.068456 1073.87235,162.804526 1072.74,162.81 C1047.83,162.81 999.01,283.81 957.9,285.7 C927.78,285.7 945.05,247.94 976.78,199.34 C1009.32,148.72 1047.88,86.06 1053.5,39.06 L1145.89,256.77 C1148.3,264 1152.32,275.25 1146.29,283.29 L1146.29,287.29 L1200.52,287.29 L1200.52,283.29 C1192.73349,277.895713 1186.49636,270.555279 1182.43,262 L1073.17,0.5 L1073.18,0.5 Z" id="Shape"></path>
        </g>
    </g>
</svg>