<svg width="282" height="280" viewBox="0 0 282 280" fill="none" xmlns="http://www.w3.org/2000/svg">
<path d="M54.664 127.029C54.664 127.029 93.4349 125.476 101.813 61.7453C109.254 5.14599 174.632 30.9079 193.53 53.4698C218.011 82.6968 204.961 132.973 236.63 139.325C268.299 145.676 247.619 216.292 199.547 209.533C139.746 201.125 154.215 236.069 136.263 250.859C123.38 261.474 70.5523 251.256 68.7917 212.722C67.3101 180.297 53.6323 180.4 43.9375 176.723C29.9553 171.42 21.1449 133.017 54.664 127.029Z" fill="#E9E9E9"/>
<path d="M186.462 197.807L148.371 160.168L140.828 167.801L178.92 205.44L186.462 197.807Z" fill="#9A9A9A"/>
<path d="M201.014 207.92L171.379 178.637C171.214 178.474 170.948 178.476 170.785 178.641L159.568 189.992C159.405 190.157 159.407 190.423 159.572 190.586L189.207 219.869C189.372 220.032 189.638 220.031 189.801 219.866L201.018 208.514C201.181 208.349 201.179 208.083 201.014 207.92Z" fill="#5D5D5D"/>
<path d="M114.612 179.097C140.817 179.097 162.061 157.853 162.061 131.648C162.061 105.442 140.817 84.1982 114.612 84.1982C88.406 84.1982 67.1621 105.442 67.1621 131.648C67.1621 157.853 88.406 179.097 114.612 179.097Z" fill="#5D5D5D"/>
<path d="M114.612 171.355C136.541 171.355 154.319 153.577 154.319 131.648C154.319 109.718 136.541 91.9404 114.612 91.9404C92.6818 91.9404 74.9043 109.718 74.9043 131.648C74.9043 153.577 92.6818 171.355 114.612 171.355Z" fill="#E8E8E8"/>
<path d="M52.6133 71.5859L62.7325 64.731L72.362 70.7699L81.0122 58.2025L91.1314 64.731L101.74 61.4668L111.207 53.959" stroke="#5D5D5D" stroke-width="0.65285"/>
<circle cx="72.0339" cy="69.7907" r="1.79534" fill="white" stroke="#5D5D5D" stroke-width="0.65285"/>
<circle cx="62.5671" cy="65.2204" r="1.79534" fill="white" stroke="#5D5D5D" stroke-width="0.65285"/>
<circle cx="80.8483" cy="58.3649" r="1.79534" fill="white" stroke="#5D5D5D" stroke-width="0.65285"/>
<circle cx="90.6393" cy="64.2409" r="1.79534" fill="white" stroke="#5D5D5D" stroke-width="0.65285"/>
<circle cx="102.391" cy="60.9763" r="1.79534" fill="white" stroke="#5D5D5D" stroke-width="0.65285"/>
<circle cx="110.878" cy="54.1218" r="1.79534" fill="white" stroke="#5D5D5D" stroke-width="0.65285"/>
<circle cx="52.1218" cy="71.0964" r="1.79534" fill="white" stroke="#5D5D5D" stroke-width="0.65285"/>
<rect x="180.391" y="58.3908" width="101.218" height="50.8046" rx="3.51724" fill="white" stroke="#E8E8E8" stroke-width="0.781609"/>
<rect x="189" y="73" width="8" height="28" fill="#5D5D5D"/>
<rect x="200" y="84" width="8" height="17" fill="#5D5D5D"/>
<rect x="211" y="80" width="8" height="21" fill="#5D5D5D"/>
<rect x="222" y="93" width="8" height="8" fill="#5D5D5D"/>
<rect x="233" y="69" width="8" height="32" fill="#5D5D5D"/>
<rect x="244" y="76" width="8" height="25" fill="#5D5D5D"/>
<rect x="255" y="90" width="8" height="11" fill="#5D5D5D"/>
<rect x="266" y="76" width="8" height="25" fill="#5D5D5D"/>
<rect x="0.390805" y="179.391" width="87.2184" height="100.218" rx="3.51724" fill="white" stroke="#E8E8E8" stroke-width="0.781609"/>
<path d="M58.6138 194.951C53.2006 191.793 46.91 190.474 40.6841 191.19C34.4581 191.907 28.6318 194.621 24.0776 198.926C19.5235 203.232 16.4866 208.896 15.4217 215.072C14.3568 221.248 15.3213 227.603 18.1706 233.185L44 220L58.6138 194.951Z" fill="#5D5D5D"/>
<path d="M70.9883 230.613C73.572 224.042 73.6701 216.755 71.2642 210.118C68.8583 203.48 64.1137 197.948 57.92 194.559L44 220L70.9883 230.613Z" fill="#9A9A9A"/>
<path d="M17.8518 232.541C20.3321 237.712 24.2903 242.032 29.2258 244.954C34.1613 247.876 39.8525 249.269 45.5796 248.957C51.3067 248.645 56.8126 246.641 61.401 243.199C65.9894 239.758 69.4542 235.033 71.3572 229.622L44 220L17.8518 232.541Z" fill="#D9D9D9"/>
<rect x="8" y="255" width="72" height="3" fill="#D9D9D9"/>
<rect x="8" y="260" width="72" height="3" fill="#D9D9D9"/>
<rect x="8" y="265" width="72" height="3" fill="#D9D9D9"/>
</svg>
