<svg width="4" height="14" viewBox="0 0 4 14" fill="none" xmlns="http://www.w3.org/2000/svg">
<path fill-rule="evenodd" clip-rule="evenodd" d="M2 0.0291748C1.172 0.0291748 0.5 0.702327 0.5 1.53175C0.5 2.36117 1.172 3.03432 2 3.03432C2.828 3.03432 3.5 2.36117 3.5 1.53175C3.5 0.702327 2.828 0.0291748 2 0.0291748ZM2 5.28818C1.172 5.28818 0.5 5.96133 0.5 6.79075C0.5 7.62017 1.172 8.29333 2 8.29333C2.828 8.29333 3.5 7.62017 3.5 6.79075C3.5 5.96133 2.828 5.28818 2 5.28818ZM0.5 12.0498C0.5 11.2203 1.172 10.5472 2 10.5472C2.828 10.5472 3.5 11.2203 3.5 12.0498C3.5 12.8792 2.828 13.5523 2 13.5523C1.172 13.5523 0.5 12.8792 0.5 12.0498Z" fill="#808191"/>
</svg>
