<svg width="16" height="16" viewBox="0 0 16 16" fill="none" xmlns="http://www.w3.org/2000/svg">
<path fill-rule="evenodd" clip-rule="evenodd" d="M6.66667 3.33333C7.402 3.33333 8 3.93133 8 4.66667C8 5.402 7.402 6 6.66667 6C5.93133 6 5.33333 5.402 5.33333 4.66667C5.33333 3.93133 5.93133 3.33333 6.66667 3.33333ZM6.66667 7.33333C8.13733 7.33333 9.33333 6.13733 9.33333 4.66667C9.33333 3.196 8.13733 2 6.66667 2C5.196 2 4 3.196 4 4.66667C4 6.13733 5.196 7.33333 6.66667 7.33333ZM6.66667 8.66667C4.094 8.66667 2 10.76 2 13.3333C2 13.7013 2.298 14 2.66667 14C3.03533 14 3.33333 13.7013 3.33333 13.3333C3.33333 11.4953 4.82867 10 6.66667 10C8.50467 10 10 11.4953 10 13.3333C10 13.7013 10.298 14 10.6667 14C11.0353 14 11.3333 13.7013 11.3333 13.3333C11.3333 10.76 9.23933 8.66667 6.66667 8.66667ZM13.3333 4H14C14.3667 4 14.6667 4.3 14.6667 4.66667C14.6667 5.03333 14.3667 5.33333 14 5.33333H13.3333V6C13.3333 6.36667 13.0333 6.66667 12.6667 6.66667C12.3 6.66667 12 6.36667 12 6V5.33333H11.3333C10.9667 5.33333 10.6667 5.03333 10.6667 4.66667C10.6667 4.3 10.9667 4 11.3333 4H12V3.33333C12 2.96667 12.3 2.66667 12.6667 2.66667C13.0333 2.66667 13.3333 2.96667 13.3333 3.33333V4Z" fill="#2F62FD"/>
</svg>
