<svg width="16" height="16" viewBox="0 0 16 16" fill="none" xmlns="http://www.w3.org/2000/svg">
<path d="M11.2806 8.73828C11.8431 8.73828 12.3353 8.45703 12.5814 7.96484L15.2532 3.11328C15.5345 2.62109 15.1829 1.98828 14.6204 1.98828H3.51104L2.80791 0.511719H0.346977V1.98828H1.8587L4.56573 7.68359L3.5462 9.51172C2.9837 10.5312 3.72198 11.7617 4.84698 11.7617H13.847V10.25H4.84698L5.69073 8.73828H11.2806ZM4.21416 3.5H13.3548L11.2806 7.26172H6.00713L4.21416 3.5ZM4.84698 12.5C4.03838 12.5 3.37041 13.168 3.37041 14.0117C3.37041 14.8203 4.03838 15.4883 4.84698 15.4883C5.69073 15.4883 6.3587 14.8203 6.3587 14.0117C6.3587 13.168 5.69073 12.5 4.84698 12.5ZM12.3704 12.5C11.5267 12.5 10.8587 13.168 10.8587 14.0117C10.8587 14.8203 11.5267 15.4883 12.3704 15.4883C13.179 15.4883 13.847 14.8203 13.847 14.0117C13.847 13.168 13.179 12.5 12.3704 12.5Z" fill="black"/>
</svg>
