<svg width="66" height="66" viewBox="0 0 66 66" fill="none" xmlns="http://www.w3.org/2000/svg">
<path d="M64.4922 61.3164L48.1152 44.9395C47.8613 44.6855 47.4805 44.5586 47.0996 44.5586H45.7031C50.1465 39.7344 52.8125 33.5137 52.8125 26.5312C52.8125 12.0586 40.8789 0.125 26.4062 0.125C11.8066 0.125 0 12.0586 0 26.5312C0 41.1309 11.8066 52.9375 26.4062 52.9375C33.2617 52.9375 39.6094 50.2715 44.3066 45.9551V47.2246C44.3066 47.7324 44.4336 48.1133 44.6875 48.3672L61.0645 64.7441C61.6992 65.3789 62.5879 65.3789 63.2227 64.7441L64.4922 63.4746C65.127 62.8398 65.127 61.9512 64.4922 61.3164ZM26.4062 48.875C13.9648 48.875 4.0625 38.9727 4.0625 26.5312C4.0625 14.2168 13.9648 4.1875 26.4062 4.1875C38.7207 4.1875 48.75 14.2168 48.75 26.5312C48.75 38.9727 38.7207 48.875 26.4062 48.875Z" fill="black"/>
</svg>
