<svg width="551" height="275" viewBox="0 0 551 275" fill="none" xmlns="http://www.w3.org/2000/svg">
<g clip-path="url(#clip0_365_500)">
<path d="M44.2835 244.407L40.6694 254.35L26.0011 294.696L22.1218 305.364L-2.99976 296.231V227.216L9.54714 231.78L44.2835 244.407Z" fill="#20C933"/>
<path d="M26.0006 294.696C20.7626 284.538 14.1179 267.077 22.4572 257.81C25.7682 254.131 32.6402 253.466 40.6689 254.348" stroke="white" stroke-width="1.38774" stroke-miterlimit="10"/>
<path d="M9.54967 231.78C9.21377 246.592 7.29688 278.952 -2.99976 282.056" stroke="white" stroke-width="1.38774" stroke-miterlimit="10"/>
<path d="M551.344 235.267V301.406L513.037 307.988L502 243.746L551.344 235.267Z" fill="#FFA800"/>
<path d="M432.836 243.364C427.54 244.051 422.542 239.174 422.542 239.174C422.542 239.174 426.13 233.186 431.429 232.499C436.727 231.812 441.723 236.689 441.723 236.689C441.723 236.689 438.132 242.68 432.836 243.364Z" fill="#FFA800"/>
<path d="M173.469 268.216C155.56 284.22 128.067 282.677 112.063 264.768C96.0584 246.86 97.6015 219.367 115.51 203.362L173.469 268.216Z" fill="#FFA800"/>
<path d="M256.204 308.384C256.472 307.831 241.344 237.121 241.344 237.121L311.041 258.937L256.204 308.384Z" fill="#0A5DFF"/>
<path d="M242.811 244.155C247.327 243.988 251.681 244.64 255.881 246.329C259.677 247.855 263.175 250.001 266.874 251.734C274.047 255.09 282.399 256.585 289.582 252.363C289.769 252.254 289.645 251.916 289.43 251.999C287.498 252.759 285.639 253.573 283.594 253.999C281.49 254.439 279.336 254.509 277.204 254.275C272.905 253.8 268.852 252.128 265.028 250.188C261.659 248.478 258.358 246.61 254.787 245.334C250.928 243.955 246.892 243.435 242.814 243.831C242.612 243.854 242.601 244.162 242.811 244.155Z" fill="white"/>
<path d="M247.298 265.453C251.804 266.097 255.92 267.824 259.941 269.898C263.542 271.756 267.091 273.719 270.975 274.939C274.983 276.199 279.241 276.651 283.358 275.646C287.222 274.701 290.647 272.64 294.031 270.625C298.761 267.809 303.648 265.139 308.207 262.051C308.416 261.909 308.234 261.589 308.007 261.707C303.863 263.864 299.893 266.422 295.882 268.817C292.341 270.931 288.815 273.282 284.878 274.595C275.968 277.57 267.795 273.3 260.022 269.337C256.001 267.289 251.874 265.579 247.346 265.134C247.162 265.122 247.119 265.427 247.298 265.453Z" fill="white"/>
<path d="M249.66 275.699C252.905 269.963 256.065 263.755 256.035 257C256.007 250.602 252.529 244.415 248.897 239.333C248.748 239.126 248.443 239.303 248.554 239.533C249.908 242.301 251.706 244.834 253.057 247.607C254.494 250.554 255.433 253.701 255.459 257C255.512 263.793 252.178 269.584 249.382 275.54C249.299 275.722 249.556 275.881 249.66 275.699Z" fill="white"/>
<path d="M266.941 298.797C266.105 293.812 266.226 288.761 267.817 283.935C269.219 279.682 271.547 275.843 273.512 271.842C275.396 268.008 276.907 263.904 277.212 259.611C277.518 255.31 276.402 250.908 274.141 247.233C274.005 247.011 273.699 247.206 273.798 247.433C274.702 249.514 275.651 251.539 276.164 253.764C276.737 256.262 276.793 258.838 276.414 261.369C275.73 265.955 273.767 270.16 271.649 274.236C269.686 278.012 267.683 281.806 266.668 285.97C265.638 290.198 265.681 294.648 266.633 298.883C266.678 299.085 266.974 298.997 266.941 298.797Z" fill="white"/>
<path d="M290.731 277.457C292.717 273.858 294.75 270.203 296.28 266.382C297.699 262.836 298.897 258.717 298.336 254.863C298.303 254.633 297.957 254.704 297.947 254.916C297.755 259.028 297.121 262.813 295.56 266.647C294.07 270.312 291.911 273.666 290.441 277.335C290.373 277.502 290.646 277.611 290.731 277.457Z" fill="white"/>
<path d="M427.413 227.777C427.413 227.777 424.557 240.334 414.174 248.309" stroke="black" stroke-width="1.11019" stroke-miterlimit="10"/>
<path d="M370.152 280.081C353.143 256.894 372.579 222.167 396.299 223.162C416.529 224.011 415.91 246.516 415.91 246.516C415.91 246.516 437.963 252.865 433.132 272.466C427.571 295.032 388.109 304.558 370.152 280.081Z" fill="#20C933"/>
<path d="M280.163 90.3596C280.163 90.3596 291.332 107.274 297.043 108.384C304.31 109.797 322.616 93.4453 322.616 93.4453C322.616 93.4453 335.184 97.9393 336.222 96.9043C337.259 95.8693 327.243 90.8129 327.243 90.8129C327.243 90.8129 341.113 95.7408 341.441 94.4367C341.768 93.135 330.254 87.7999 330.254 87.7999C330.254 87.7999 341.186 91.894 341.918 90.9292C342.982 89.5233 329.493 81.8466 329.493 81.8466C319.266 79.0978 300.621 92.5727 300.621 92.5727C300.621 92.5727 292.615 76.1648 283.319 71.1423" stroke="black" stroke-width="0.832644" stroke-miterlimit="10"/>
<path d="M320.55 85.485C322.438 88.8277 325.82 89.1307 325.82 89.1307L324.683 83.5192" stroke="black" stroke-width="0.832644" stroke-miterlimit="10"/>
<path d="M203.021 145.665L180.139 138.992L172.836 183.83L190.056 151.204L205.474 155.627" fill="#0A5DFF"/>
<path d="M185.257 151.538L188.808 159.974" stroke="white" stroke-width="1.11019" stroke-miterlimit="10"/>
<path d="M183.382 155.867L186.933 164.305" stroke="white" stroke-width="1.11019" stroke-miterlimit="10"/>
<path d="M187.833 157.128L190.725 165.813" stroke="white" stroke-width="1.11019" stroke-miterlimit="10"/>
<path d="M280.026 51.656C280.305 56.6858 276.456 60.9859 271.429 61.2646C266.983 61.5119 263.105 58.5304 262.072 54.3636C261.939 53.8158 261.851 53.251 261.817 52.6668C261.539 47.6395 265.388 43.337 270.415 43.0582C273.031 42.9128 275.45 43.8848 277.21 45.5573C278.834 47.1038 279.893 49.2466 280.026 51.656Z" fill="#FFA800"/>
<path d="M278.698 41.8099C278.814 43.8993 277.214 45.6858 275.127 45.8021C273.28 45.9039 271.671 44.6677 271.242 42.9346C271.186 42.7067 271.149 42.4716 271.135 42.2292C271.019 40.1422 272.618 38.3533 274.705 38.2369C275.791 38.1763 276.797 38.5811 277.527 39.2744C278.201 39.9192 278.642 40.8088 278.698 41.8099Z" fill="black"/>
<path d="M272.371 41.0948C272.442 42.3674 271.467 43.4557 270.195 43.526C269.07 43.589 268.088 42.8352 267.826 41.7783C267.792 41.6402 267.771 41.4971 267.761 41.3493C267.691 40.0767 268.665 38.9883 269.938 38.918C270.599 38.8817 271.213 39.1265 271.656 39.5507C272.068 39.9434 272.337 40.4839 272.371 41.0948Z" fill="black"/>
<path d="M277.489 55.9804C277.489 55.9804 275.601 55.5659 275.673 53.8303" stroke="black" stroke-width="1.11019" stroke-miterlimit="10"/>
<path d="M277.239 54.2848C277.784 54.2545 278.187 53.5277 278.139 52.6615C278.091 51.7953 277.61 51.1177 277.065 51.1481C276.519 51.1784 276.116 51.9051 276.164 52.7713C276.212 53.6375 276.694 54.3151 277.239 54.2848Z" fill="black"/>
<path d="M273.967 54.5734C274.512 54.5431 274.915 53.8164 274.867 52.9502C274.819 52.084 274.338 51.4064 273.792 51.4367C273.247 51.467 272.844 52.1938 272.892 53.06C272.94 53.9261 273.421 54.6038 273.967 54.5734Z" fill="black"/>
<path d="M265.126 52.485C265.227 54.3127 263.829 55.8737 262.004 55.9755C260.389 56.0652 258.981 54.9817 258.605 53.4692C258.557 53.2704 258.525 53.0644 258.513 52.8535C258.411 51.0282 259.81 49.4648 261.635 49.3629C262.585 49.3096 263.463 49.6635 264.103 50.2719C264.692 50.8319 265.077 51.61 265.126 52.485Z" fill="#FFA800"/>
<path d="M276.774 45.3391C276.774 45.3391 273.66 47.5765 267.752 46.8347L267.653 52.3444L264.049 51.7554C264.049 51.7554 262.95 48.6382 259.95 49.935C259.95 49.935 259.346 43.6957 262.95 42.2607C269.246 39.7543 275.082 42.268 276.774 45.3391Z" fill="black"/>
<path d="M264.949 103.873C272.534 104.363 279.539 108.105 284.161 114.141L340.041 187.12L318.887 208.952L263.744 131.894L256.22 161.736C253.864 171.083 244.648 176.987 235.173 175.225L197.621 168.239C197.621 168.239 192.906 165.311 193.76 153.128C194.613 140.943 200.678 140.027 200.678 140.027L231.709 145.67L237.864 123.195C241.165 111.143 252.48 103.071 264.949 103.873Z" fill="#FFA800"/>
<path d="M202.982 169.156C201.576 165.5 200.578 161.285 201.809 157.433C202.342 155.766 203.445 153.952 205.188 153.349C207.12 152.677 208.846 153.945 210.143 155.244C215.597 160.701 219.848 167.151 224.398 173.33C224.522 173.497 224.786 173.354 224.682 173.162C222.471 169.136 219.635 165.415 216.767 161.838C215.381 160.107 213.939 158.42 212.458 156.769C211.166 155.332 209.82 153.613 207.976 152.862C204.868 151.594 202.299 154.192 201.339 156.944C199.918 161.011 200.99 165.486 202.643 169.296C202.728 169.488 203.057 169.352 202.982 169.156Z" fill="#FF6E6E"/>
<path d="M214.508 142.589C215.667 147.236 218.399 151.153 221.741 154.515C225.053 157.848 228.897 160.778 233.372 162.339C237.155 163.66 241.809 163.716 243.95 159.726C246.073 155.766 245.244 150.593 243.921 146.518C243.06 143.864 241.86 141.326 240.539 138.875C239.155 136.311 237.635 133.688 235.73 131.473C235.541 131.252 235.173 131.538 235.328 131.783C237.827 135.661 240.338 139.428 242.158 143.694C243.899 147.771 245.188 152.503 244.214 156.939C243.749 159.06 242.646 161.098 240.564 161.978C238.467 162.863 236.048 162.465 233.946 161.794C229.82 160.478 226.18 157.899 223.019 154.992C219.303 151.575 216.074 147.466 214.712 142.531C214.676 142.402 214.477 142.458 214.508 142.589Z" fill="#FF6E6E"/>
<path d="M243.496 174.842C242.199 170.656 240.99 166.38 240.898 161.966C240.813 157.901 241.816 153.887 243.491 150.2C244.972 146.942 246.916 143.391 249.92 141.302C253.798 138.604 257.604 140.589 260.769 143.34C260.946 143.495 261.201 143.251 261.031 143.078C258.937 140.965 256.261 138.955 253.117 139.302C250.385 139.605 248.211 141.5 246.577 143.585C242.505 148.78 240.006 155.804 240.318 162.419C240.522 166.719 241.824 170.872 243.13 174.942C243.205 175.177 243.569 175.077 243.496 174.842Z" fill="#FF6E6E"/>
<path d="M196.426 143.483C198.064 144.724 200.324 146.067 202.437 145.255C204.059 144.632 205.113 142.46 205.259 140.817C205.278 140.596 204.922 140.495 204.83 140.701C204.185 142.16 203.637 144.244 201.916 144.773C200.089 145.335 198.072 144.157 196.605 143.173C196.411 143.045 196.247 143.348 196.426 143.483Z" fill="#FF6E6E"/>
<path d="M240.64 116.541C242.404 119.023 244.666 121.704 247.492 122.998C249.943 124.121 252.449 123.619 254.517 121.966C256.924 120.041 258.471 117.157 259.644 114.364C261.047 111.024 262.213 107.429 262.904 103.871C262.948 103.65 262.647 103.57 262.569 103.779C260.499 109.378 259.445 115.848 255.288 120.405C253.206 122.686 250.307 123.893 247.378 122.419C244.753 121.098 242.688 118.608 240.853 116.376C240.756 116.257 240.55 116.415 240.64 116.541Z" fill="#FF6E6E"/>
<path d="M287.399 118.332C285.288 117.404 283.15 116.538 280.845 116.255C278.755 115.998 275.859 115.874 274.005 117.064C269.852 119.731 273.767 125.97 275.709 128.731C278.562 132.789 282.345 136.19 286.224 139.246C290.231 142.405 294.533 145.185 299.01 147.626C304.045 150.37 309.397 152.883 314.972 154.301C315.147 154.345 315.214 154.093 315.047 154.032C306.28 150.91 297.956 146.991 290.337 141.597C286.607 138.958 283.087 136.013 279.926 132.709C278.346 131.056 276.867 129.286 275.614 127.371C274.32 125.393 272.763 122.918 272.843 120.47C272.96 116.858 276.875 116.57 279.672 116.65C282.353 116.725 284.92 117.35 287.382 118.378C287.407 118.39 287.426 118.344 287.399 118.332Z" fill="#FF6E6E"/>
<path d="M271.594 142.996C273.341 140.485 275.472 138.104 277.816 136.134C279.137 135.021 280.669 134.073 282.39 133.739C284.516 133.327 286.474 134.204 288.021 135.634C293.506 140.71 294.02 149.349 293.043 156.267C292.418 160.698 291.201 164.986 290.384 169.374C290.329 169.677 290.741 169.791 290.845 169.5C292.35 165.292 293.15 160.681 293.756 156.265C294.258 152.614 294.36 149.034 293.625 145.403C292.849 141.551 291.182 137.368 288.098 134.779C285.243 132.381 281.762 132.515 278.732 134.578C275.746 136.611 273.109 139.712 271.303 142.826C271.196 143.015 271.472 143.171 271.594 142.996Z" fill="#FF6E6E"/>
<path d="M301.453 184.773C306.664 184.08 311.619 182.766 316.564 180.997C321.213 179.331 326.153 177.101 330.017 173.987C330.211 173.829 329.964 173.565 329.765 173.662C327.508 174.755 325.356 176.059 323.114 177.189C320.774 178.367 318.372 179.39 315.946 180.376C311.345 182.247 306.301 183.622 301.402 184.417C301.206 184.448 301.249 184.8 301.453 184.773Z" fill="#FF6E6E"/>
<path d="M320.578 161.52C317.938 161.651 315.27 161.847 312.703 162.516C310.228 163.161 307.847 164.143 305.591 165.343C303.46 166.477 301.477 167.922 299.625 169.466C297.708 171.066 295.808 172.811 294.411 174.898C294.276 175.099 294.569 175.305 294.736 175.15C298.268 171.873 301.644 168.617 305.831 166.16C310.293 163.539 315.447 162.293 320.576 161.886C320.808 161.867 320.813 161.508 320.578 161.52Z" fill="#FF6E6E"/>
<path d="M309.234 195.315C313.292 192.537 318.053 190.751 322.995 190.579C328.071 190.402 332.465 192.081 336.787 194.576C337.025 194.711 337.318 194.365 337.09 194.183C333.256 191.107 328.039 189.718 323.182 189.876C318.028 190.043 313.178 191.963 309.033 194.971C308.829 195.119 309.021 195.46 309.234 195.315Z" fill="#FF6E6E"/>
<path d="M332.981 201.584C338.837 195.477 341.97 188.979 339.979 187.071C337.989 185.162 331.628 188.565 325.773 194.672C319.917 200.779 316.784 207.277 318.774 209.186C320.765 211.095 327.125 207.691 332.981 201.584Z" fill="black"/>
<path d="M322.988 205.215L335.023 222.182L357.215 188.213L334.803 206.254L328.721 197.778" fill="#0A5DFF"/>
<path d="M338.281 205.36L339.428 197.506" stroke="white" stroke-width="1.11019" stroke-miterlimit="10"/>
<path d="M341.677 202.997L342.823 195.141" stroke="white" stroke-width="1.11019" stroke-miterlimit="10"/>
<path d="M345.173 200.26L346.319 192.404" stroke="white" stroke-width="1.11019" stroke-miterlimit="10"/>
<path d="M263.744 131.894L266.578 117.094" stroke="white" stroke-width="0.832644" stroke-miterlimit="10"/>
<path d="M351.322 206.526C358.475 196.46 362.932 187.347 361.277 186.171C359.622 184.994 352.481 192.2 345.327 202.265C338.174 212.33 333.717 221.443 335.372 222.62C337.028 223.796 344.169 216.591 351.322 206.526Z" fill="black"/>
<path d="M290.794 83.2549C289.504 89.9911 283 94.4052 276.264 93.1156L252.694 88.6046C245.96 87.3151 241.543 80.8116 242.833 74.0753C244.122 67.3416 250.626 62.9251 257.362 64.2146L280.933 68.7256C287.669 70.0152 292.083 76.5187 290.794 83.2549Z" fill="black"/>
<path d="M252.842 83.5652C252.837 83.5628 232.119 89.5161 232.119 89.5161C232.119 89.5161 225.259 114.861 218.918 114.374C218.918 114.374 205.23 113.269 204.665 112.117C204.101 110.966 213.51 110.023 213.51 110.023C213.51 110.023 202.59 110.11 201.89 108.782C201.189 107.456 212.781 106.767 212.781 106.767C212.781 106.767 203.109 106.353 203.039 104.916C202.969 103.476 214.584 103.02 214.584 103.02C214.584 103.02 217.054 84.0476 222.37 78.996C228.544 73.13 254.871 67.5209 254.871 67.5209" stroke="black" stroke-width="0.832644" stroke-miterlimit="10"/>
<path d="M243.933 68.2481L254.749 65.5866" stroke="white" stroke-width="0.832644" stroke-miterlimit="10"/>
<path d="M246.507 85.4413L253.672 83.4512" stroke="white" stroke-width="0.832644" stroke-miterlimit="10"/>
</g>
<defs>
<clipPath id="clip0_365_500">
<rect width="551" height="275" fill="white"/>
</clipPath>
</defs>
</svg>
