<svg width="33" height="32" viewBox="0 0 33 32" fill="none" xmlns="http://www.w3.org/2000/svg">
<path d="M30.6523 17.0104C31.0591 16.6616 31.2626 16.4873 31.3371 16.2798C31.4025 16.0977 31.4025 15.8984 31.3371 15.7163C31.2626 15.5088 31.0591 15.3344 30.6523 14.9857L16.5344 2.88466C15.834 2.28434 15.4838 1.98417 15.1873 1.97682C14.9297 1.97043 14.6835 2.08363 14.5207 2.28343C14.3333 2.51332 14.3333 2.97455 14.3333 3.897V11.0558C10.7755 11.6782 7.51932 13.481 5.09952 16.1878C2.46137 19.1389 1.00206 22.958 1 26.9163V27.9363C2.7489 25.8295 4.93251 24.1256 7.40126 22.9412C9.57783 21.8971 11.9307 21.2786 14.3333 21.1156V28.0991C14.3333 29.0215 14.3333 29.4828 14.5207 29.7127C14.6835 29.9125 14.9297 30.0257 15.1873 30.0193C15.4838 30.0119 15.834 29.7118 16.5344 29.1114L30.6523 17.0104Z" stroke="black" stroke-width="2" stroke-linecap="round" stroke-linejoin="round"/>
</svg>
