<svg width="32" height="32" viewBox="0 0 32 32" fill="none" xmlns="http://www.w3.org/2000/svg">
<circle cx="16" cy="16" r="15.5" stroke="#F1F1F1" stroke-opacity="0.35"/>
<path d="M20.5 13C21.7426 13 22.75 11.9926 22.75 10.75C22.75 9.50736 21.7426 8.5 20.5 8.5C19.2574 8.5 18.25 9.50736 18.25 10.75C18.25 11.9926 19.2574 13 20.5 13Z" stroke="#F1F1F1" stroke-linecap="round" stroke-linejoin="round"/>
<path d="M11.5 18.25C12.7426 18.25 13.75 17.2426 13.75 16C13.75 14.7574 12.7426 13.75 11.5 13.75C10.2574 13.75 9.25 14.7574 9.25 16C9.25 17.2426 10.2574 18.25 11.5 18.25Z" stroke="#F1F1F1" stroke-linecap="round" stroke-linejoin="round"/>
<path d="M20.5 23.5C21.7426 23.5 22.75 22.4926 22.75 21.25C22.75 20.0074 21.7426 19 20.5 19C19.2574 19 18.25 20.0074 18.25 21.25C18.25 22.4926 19.2574 23.5 20.5 23.5Z" stroke="#F1F1F1" stroke-linecap="round" stroke-linejoin="round"/>
<path d="M13.4375 17.1328L18.56 20.1178" stroke="#F1F1F1" stroke-linecap="round" stroke-linejoin="round"/>
<path d="M18.5525 11.8828L13.4375 14.8678" stroke="#F1F1F1" stroke-linecap="round" stroke-linejoin="round"/>
</svg>
