<svg width="24" height="25" viewBox="0 0 24 25" fill="none" xmlns="http://www.w3.org/2000/svg">
<path fill-rule="evenodd" clip-rule="evenodd" d="M12 20.01C16.4183 20.01 20 16.4283 20 12.01C20 7.59173 16.4183 4.01001 12 4.01001C7.58172 4.01001 4 7.59173 4 12.01C4 16.4283 7.58172 20.01 12 20.01ZM12 22.01C17.5228 22.01 22 17.5329 22 12.01C22 6.48716 17.5228 2.01001 12 2.01001C6.47715 2.01001 2 6.48716 2 12.01C2 17.5329 6.47715 22.01 12 22.01Z" fill="#808191"/>
<circle cx="12" cy="18.01" r="1" fill="#808191"/>
<path fill-rule="evenodd" clip-rule="evenodd" d="M12 8.01001C11.1308 8.01001 10.3886 8.56511 10.1136 9.34326C9.92951 9.86397 9.35818 10.1369 8.83747 9.95285C8.31675 9.7688 8.04383 9.19748 8.22787 8.67676C8.77651 7.12452 10.2568 6.01001 12 6.01001C14.2091 6.01001 16 7.80087 16 10.01C16 11.8738 14.7252 13.4399 13 13.884V15.01C13 15.5623 12.5523 16.01 12 16.01C11.4477 16.01 11 15.5623 11 15.01V13.01C11 12.4577 11.4477 12.01 12 12.01C13.1046 12.01 14 11.1146 14 10.01C14 8.90544 13.1046 8.01001 12 8.01001Z" fill="#808191"/>
</svg>
