<?xml version="1.0" standalone="no"?>
<!DOCTYPE svg PUBLIC "-//W3C//DTD SVG 20010904//EN"
 "http://www.w3.org/TR/2001/REC-SVG-20010904/DTD/svg10.dtd">
<svg version="1.0" xmlns="http://www.w3.org/2000/svg"
 width="1200.000000pt" height="630.000000pt" viewBox="0 0 1200.000000 630.000000"
 preserveAspectRatio="xMidYMid meet">

<g transform="translate(0.000000,630.000000) scale(0.100000,-0.100000)"
fill="#000000" stroke="none">
<path d="M0 3150 l0 -3150 6000 0 6000 0 0 3150 0 3150 -6000 0 -6000 0 0
-3150z m2552 218 c3 -472 3 -473 26 -520 51 -103 171 -152 372 -152 197 0 320
48 372 146 23 43 23 46 26 521 l3 477 125 0 125 0 -4 -502 c-4 -547 -6 -566
-64 -665 -83 -142 -286 -213 -603 -213 -193 0 -363 35 -465 94 -54 32 -112 97
-137 154 -41 91 -46 164 -47 660 l-1 472 134 0 135 0 3 -472z m2212 27 c241
-245 441 -445 445 -445 3 0 5 200 3 445 l-2 445 125 0 125 0 0 -680 0 -680
-107 0 -108 -1 -457 463 -457 463 -1 -462 0 -463 -119 0 c-97 0 -120 3 -125
15 -3 8 -6 314 -6 680 l0 665 123 0 124 0 437 -445z m1615 225 c96 -121 175
-220 176 -220 2 0 83 99 181 220 l178 220 153 0 153 0 -260 -325 -261 -325
266 -348 c145 -191 265 -350 265 -355 0 -4 -73 -6 -162 -5 l-162 3 -183 235
c-101 129 -187 236 -191 238 -5 1 -92 -105 -193 -237 l-184 -240 -153 -1 -154
0 30 38 c16 20 123 159 237 307 115 149 222 287 239 308 27 34 29 40 17 59 -7
11 -99 136 -205 277 -105 141 -211 282 -234 314 l-43 57 158 0 158 0 174 -220z
m2154 205 c117 -20 187 -48 260 -103 102 -77 174 -190 213 -332 15 -51 18
-101 18 -235 0 -157 -2 -176 -27 -250 -36 -109 -90 -196 -164 -265 -71 -67
-136 -101 -248 -131 -75 -21 -108 -22 -517 -27 l-438 -4 0 681 0 681 409 0
c318 0 427 -3 494 -15z m1116 -1062 c41 -31 63 -68 68 -116 7 -59 -10 -106
-53 -148 -32 -31 -40 -34 -94 -34 -55 0 -62 3 -94 35 -65 65 -71 163 -14 235
44 56 131 69 187 28z"/>
<path d="M8123 3612 l-223 -2 0 -451 0 -451 273 4 c297 5 329 10 419 67 156
99 213 376 126 608 -29 78 -112 162 -189 191 -83 31 -159 37 -406 34z"/>
</g>
</svg>
