<svg width="47" height="46" viewBox="0 0 47 46" fill="none" xmlns="http://www.w3.org/2000/svg">
<path d="M3.5 23C3.5 11.9543 12.4543 3 23.5 3V3C34.5457 3 43.5 11.9543 43.5 23V23C43.5 34.0457 34.5457 43 23.5 43V43C12.4543 43 3.5 34.0457 3.5 23V23Z" fill="#F2F4F7"/>
<path d="M20.1667 26.3333L23.5001 23M23.5001 23L26.8334 26.3333M23.5001 23V30.5M30.1667 26.9524C31.1847 26.1117 31.8334 24.8399 31.8334 23.4167C31.8334 20.8854 29.7814 18.8333 27.2501 18.8333C27.068 18.8333 26.8976 18.7383 26.8052 18.5814C25.7185 16.7374 23.7121 15.5 21.4167 15.5C17.965 15.5 15.1667 18.2982 15.1667 21.75C15.1667 23.4718 15.863 25.0309 16.9892 26.1613" stroke="#475467" stroke-width="1.66667" stroke-linecap="round" stroke-linejoin="round"/>
<path d="M23.5 40C14.1112 40 6.5 32.3888 6.5 23H0.5C0.5 35.7025 10.7975 46 23.5 46V40ZM40.5 23C40.5 32.3888 32.8888 40 23.5 40V46C36.2025 46 46.5 35.7025 46.5 23H40.5ZM23.5 6C32.8888 6 40.5 13.6112 40.5 23H46.5C46.5 10.2975 36.2025 0 23.5 0V6ZM23.5 0C10.7975 0 0.5 10.2975 0.5 23H6.5C6.5 13.6112 14.1112 6 23.5 6V0Z" fill="#F9FAFB"/>
</svg>
