<svg width="24" height="25" viewBox="0 0 24 25" fill="none" xmlns="http://www.w3.org/2000/svg">
<path fill-rule="evenodd" clip-rule="evenodd" d="M10 5.01001C11.103 5.01001 12 5.90701 12 7.01001C12 8.11301 11.103 9.01001 10 9.01001C8.897 9.01001 8 8.11301 8 7.01001C8 5.90701 8.897 5.01001 10 5.01001ZM10 11.01C12.206 11.01 14 9.21601 14 7.01001C14 4.80401 12.206 3.01001 10 3.01001C7.794 3.01001 6 4.80401 6 7.01001C6 9.21601 7.794 11.01 10 11.01ZM10 13.01C6.141 13.01 3 16.15 3 20.01C3 20.562 3.447 21.01 4 21.01C4.553 21.01 5 20.562 5 20.01C5 17.253 7.243 15.01 10 15.01C12.757 15.01 15 17.253 15 20.01C15 20.562 15.447 21.01 16 21.01C16.553 21.01 17 20.562 17 20.01C17 16.15 13.859 13.01 10 13.01ZM20 6.01001H21C21.55 6.01001 22 6.46001 22 7.01001C22 7.56001 21.55 8.01001 21 8.01001H20V9.01001C20 9.56001 19.55 10.01 19 10.01C18.45 10.01 18 9.56001 18 9.01001V8.01001H17C16.45 8.01001 16 7.56001 16 7.01001C16 6.46001 16.45 6.01001 17 6.01001H18V5.01001C18 4.46001 18.45 4.01001 19 4.01001C19.55 4.01001 20 4.46001 20 5.01001V6.01001Z" fill="#4C4D53"/>
</svg>
