<svg width="20" height="20" viewBox="0 0 20 20" fill="none" xmlns="http://www.w3.org/2000/svg">
<g clip-path="url(#clip0_1853_31122)">
<path d="M9.40575 0.70533C9.50624 0.021663 10.4925 0.0216641 10.593 0.705331L10.7088 1.49331C10.795 2.07991 11.5892 2.19934 11.8441 1.66404L12.1862 0.945849C12.4833 0.322021 13.4258 0.611994 13.3209 1.29494L13.1994 2.08605C13.1094 2.67192 13.833 3.0196 14.2341 2.58321L14.7738 1.9962C15.2413 1.48761 16.0566 2.04198 15.7555 2.66375L15.4044 3.38873C15.1462 3.92198 15.735 4.46703 16.2468 4.16849L16.9391 3.76466C17.5356 3.41665 18.1512 4.18643 17.6805 4.69185L17.1284 5.28462C16.7248 5.71798 17.1264 6.41198 17.7032 6.27797L18.489 6.09543C19.1616 5.93917 19.5224 6.85606 18.9237 7.2001L18.2191 7.60494C17.7058 7.89989 17.8846 8.68119 18.4751 8.72363L19.2836 8.78173C19.9723 8.83121 20.0461 9.81364 19.3726 9.96549L18.5804 10.1441C18.003 10.2743 17.9429 11.0734 18.4945 11.2884L19.2518 11.5837C19.8952 11.8344 19.6754 12.7948 18.987 12.7409L18.1804 12.6776C17.5902 12.6313 17.2967 13.3773 17.7603 13.7456L18.3958 14.2504C18.9365 14.6799 18.4428 15.5328 17.801 15.2778L17.0539 14.9809C16.5034 14.7622 16.0026 15.3887 16.3373 15.8775L16.7936 16.5441C17.1839 17.114 16.4604 17.7836 15.9223 17.3504L15.2998 16.8492C14.8382 16.4776 14.1746 16.929 14.3506 17.4949L14.5892 18.2614C14.7944 18.9211 13.9056 19.3481 13.519 18.7754L13.0736 18.1158C12.7419 17.6244 11.9744 17.8606 11.9763 18.4534L11.9789 19.2516C11.9812 19.9426 11.0059 20.0892 10.8049 19.4281L10.5734 18.6669C10.4009 18.0996 9.5978 18.0996 9.42532 18.6669L9.19386 19.4281C8.99285 20.0892 8.01756 19.9426 8.01981 19.2516L8.02241 18.4534C8.02434 17.8606 7.25686 17.6244 6.92513 18.1158L6.47976 18.7754C6.09317 19.3481 5.20431 18.9211 5.40958 18.2614L5.6481 17.4949C5.82418 16.929 5.16055 16.4776 4.69894 16.8492L4.07649 17.3504C3.53843 17.7835 2.81492 17.114 3.20514 16.544L3.66151 15.8775C3.99614 15.3887 3.49534 14.7622 2.94487 14.9809L2.19766 15.2778C1.55588 15.5328 1.06216 14.68 1.6029 14.2504L2.23842 13.7456C2.70203 13.3773 2.40858 12.6313 1.81831 12.6776L1.01169 12.7409C0.323337 12.7948 0.103548 11.8344 0.746869 11.5837L1.50425 11.2884C2.05579 11.0734 1.99576 10.2743 1.4183 10.1441L0.626126 9.9655C-0.0474188 9.81364 0.0264063 8.83122 0.71508 8.78173L1.52371 8.72362C2.11419 8.68119 2.29294 7.89989 1.77964 7.60494L1.07511 7.2001C0.476395 6.85607 0.837213 5.93917 1.50982 6.09544L2.29551 6.27797C2.87235 6.41198 3.27396 5.71797 2.87036 5.28461L2.31832 4.69187C1.84761 4.18645 2.46313 3.41668 3.05971 3.76468L3.75196 4.16849C4.26373 4.46702 4.85252 3.92198 4.5943 3.38873L4.24324 2.66375C3.94216 2.04198 4.75746 1.48761 5.22498 1.9962L5.7646 2.58322C6.16574 3.0196 6.88937 2.67193 6.79937 2.08606L6.67783 1.29494C6.5729 0.611994 7.51548 0.322022 7.81257 0.945849L8.15461 1.66404C8.40954 2.19934 9.20372 2.07991 9.28994 1.49331L9.40575 0.70533Z" fill="#020202"/>
<path d="M13.3366 7.5L8.75326 12.0833L6.66992 10" stroke="#F1F1F1" stroke-width="0.833333" stroke-linecap="round" stroke-linejoin="round"/>
</g>
<defs>
<clipPath id="clip0_1853_31122">
<rect width="20" height="20" fill="white"/>
</clipPath>
</defs>
</svg>
