<svg width="20" height="20" viewBox="0 0 20 20" fill="none" xmlns="http://www.w3.org/2000/svg">
<g clip-path="url(#clip0_286_17418)">
<path d="M9.4038 0.70533C9.50428 0.021663 10.4906 0.0216641 10.591 0.705331L10.7069 1.49331C10.7931 2.07991 11.5873 2.19934 11.8422 1.66404L12.1842 0.945849C12.4813 0.322021 13.4239 0.611994 13.319 1.29494L13.1974 2.08605C13.1074 2.67192 13.8311 3.0196 14.2322 2.58321L14.7718 1.9962C15.2393 1.48761 16.0546 2.04198 15.7535 2.66375L15.4025 3.38873C15.1443 3.92198 15.7331 4.46703 16.2448 4.16849L16.9371 3.76466C17.5337 3.41665 18.1492 4.18643 17.6785 4.69185L17.1264 5.28462C16.7228 5.71798 17.1245 6.41198 17.7013 6.27797L18.487 6.09543C19.1596 5.93917 19.5204 6.85606 18.9217 7.2001L18.2172 7.60494C17.7039 7.89989 17.8826 8.68119 18.4731 8.72363L19.2817 8.78173C19.9704 8.83121 20.0442 9.81364 19.3706 9.96549L18.5785 10.1441C18.001 10.2743 17.941 11.0734 18.4925 11.2884L19.2499 11.5837C19.8932 11.8344 19.6734 12.7948 18.9851 12.7409L18.1785 12.6776C17.5882 12.6313 17.2947 13.3773 17.7584 13.7456L18.3939 14.2504C18.9346 14.6799 18.4409 15.5328 17.7991 15.2778L17.0519 14.9809C16.5015 14.7622 16.0007 15.3887 16.3353 15.8775L16.7917 16.5441C17.1819 17.114 16.4584 17.7836 15.9203 17.3504L15.2978 16.8492C14.8362 16.4776 14.1726 16.929 14.3487 17.4949L14.5872 18.2614C14.7925 18.9211 13.9036 19.3481 13.517 18.7754L13.0717 18.1158C12.7399 17.6244 11.9725 17.8606 11.9744 18.4534L11.977 19.2516C11.9792 19.9426 11.0039 20.0892 10.8029 19.4281L10.5715 18.6669C10.399 18.0996 9.59585 18.0996 9.42337 18.6669L9.19191 19.4281C8.9909 20.0892 8.01561 19.9426 8.01786 19.2516L8.02045 18.4534C8.02238 17.8606 7.2549 17.6244 6.92318 18.1158L6.47781 18.7754C6.09122 19.3481 5.20235 18.9211 5.40763 18.2614L5.64615 17.4949C5.82222 16.929 5.1586 16.4776 4.69699 16.8492L4.07453 17.3504C3.53648 17.7835 2.81296 17.114 3.20319 16.544L3.65955 15.8775C3.99418 15.3887 3.49339 14.7622 2.94292 14.9809L2.19571 15.2778C1.55393 15.5328 1.06021 14.68 1.60095 14.2504L2.23647 13.7456C2.70008 13.3773 2.40663 12.6313 1.81636 12.6776L1.00974 12.7409C0.321384 12.7948 0.101595 11.8344 0.744916 11.5837L1.5023 11.2884C2.05384 11.0734 1.99381 10.2743 1.41634 10.1441L0.624172 9.9655C-0.049372 9.81364 0.0244532 8.83122 0.713127 8.78173L1.52175 8.72362C2.11224 8.68119 2.29099 7.89989 1.77769 7.60494L1.07316 7.2001C0.474442 6.85607 0.83526 5.93917 1.50787 6.09544L2.29356 6.27797C2.8704 6.41198 3.27201 5.71797 2.86841 5.28461L2.31637 4.69187C1.84565 4.18645 2.46118 3.41668 3.05776 3.76468L3.75 4.16849C4.26177 4.46702 4.85056 3.92198 4.59235 3.38873L4.24129 2.66375C3.94021 2.04198 4.75551 1.48761 5.22303 1.9962L5.76265 2.58322C6.16379 3.0196 6.88742 2.67193 6.79741 2.08606L6.67587 1.29494C6.57095 0.611994 7.51353 0.322022 7.81062 0.945849L8.15265 1.66404C8.40758 2.19934 9.20176 2.07991 9.28798 1.49331L9.4038 0.70533Z" fill="#F1F1F1"/>
<path d="M13.3385 7.5L8.75521 12.0833L6.67188 10" stroke="#020202" stroke-linecap="round" stroke-linejoin="round"/>
</g>
<defs>
<clipPath id="clip0_286_17418">
<rect width="20" height="20" fill="white"/>
</clipPath>
</defs>
</svg>
