<svg width="16" height="16" viewBox="0 0 16 16" fill="none" xmlns="http://www.w3.org/2000/svg">
<path d="M9.04263 1.40601L9.04264 1.406L9.04026 1.40399C8.46273 0.917216 7.54509 0.915365 6.97203 1.4053C6.97201 1.40532 6.97198 1.40534 6.97195 1.40537L5.9187 2.3053L5.9187 2.30529L5.9171 2.30667C5.85265 2.36253 5.74269 2.42512 5.61159 2.47383C5.48044 2.52256 5.35696 2.54671 5.27358 2.54671H4.12025C3.2479 2.54671 2.53358 3.26103 2.53358 4.13338V5.28005C2.53358 5.36323 2.50953 5.48505 2.4614 5.61507C2.41365 5.74407 2.35222 5.85405 2.29722 5.92039L1.39823 6.97921L1.39822 6.97921L1.39727 6.98034C0.916796 7.55194 0.916796 8.46149 1.39727 9.03308L1.39727 9.03308L1.39823 9.03422L2.29645 10.0921C2.2967 10.0924 2.29695 10.0927 2.2972 10.093C2.35221 10.1593 2.41365 10.2693 2.4614 10.3984C2.50953 10.5284 2.53358 10.6502 2.53358 10.7334V11.8734C2.53358 12.7457 3.2479 13.46 4.12025 13.46H5.27358C5.3607 13.46 5.48419 13.4844 5.61358 13.5327C5.74299 13.5811 5.85189 13.6436 5.9171 13.7001L5.91787 13.7007L6.9712 14.6074L6.97119 14.6074L6.97357 14.6094C7.55113 15.0962 8.46882 15.0981 9.04188 14.6081L9.04263 14.6074L10.096 13.7008L10.0967 13.7001C10.1612 13.6442 10.2711 13.5816 10.4022 13.5329C10.5334 13.4842 10.6569 13.46 10.7402 13.46H11.8736C12.7459 13.46 13.4602 12.7457 13.4602 11.8734V10.74C13.4602 10.6529 13.4846 10.5294 13.5329 10.4C13.5813 10.2706 13.6438 10.1617 13.7003 10.0965L13.701 10.0958L14.6076 9.04242L14.6076 9.04243L14.6096 9.04005C15.0964 8.4625 15.0983 7.5448 14.6083 6.97175L14.6076 6.971L13.701 5.91767L13.7003 5.9169C13.6444 5.85245 13.5818 5.74249 13.5331 5.61138C13.4844 5.48024 13.4602 5.35676 13.4602 5.27338V4.14005C13.4602 3.26769 12.7459 2.55338 11.8736 2.55338H10.7402C10.6531 2.55338 10.5296 2.52903 10.4002 2.48069C10.2708 2.43234 10.1619 2.36985 10.0967 2.31334L10.096 2.31268L9.04263 1.40601Z" fill="#FED144" stroke="white" stroke-width="0.6" stroke-linecap="round" stroke-linejoin="round"/>
<path d="M5.58691 8.00005L7.19358 9.61339L10.4136 6.38672" stroke="#242731" stroke-linecap="round" stroke-linejoin="round"/>
</svg>
