<svg width="56" height="56" viewBox="0 0 56 56" fill="none" xmlns="http://www.w3.org/2000/svg">
<rect opacity="0.08" width="55.193" height="55.5078" rx="3" fill="#FF6E6E"/>
<path d="M40.1317 22.6446C40.1297 22.5536 40.1175 22.463 40.0953 22.3747C40.0865 22.3431 40.069 22.3129 40.0577 22.2813C40.0313 22.2094 40.0075 22.1388 39.9699 22.0732C39.9498 22.0391 39.9222 22.0114 39.8984 21.9786C39.8582 21.9218 39.8193 21.8638 39.7704 21.8146C39.7416 21.7868 39.7039 21.7641 39.6726 21.7376C39.6236 21.6972 39.5785 21.6531 39.522 21.619C39.517 21.6152 39.5108 21.6152 39.5045 21.6114L39.4944 21.6039L28.2313 15.3088C28.0452 15.205 27.8359 15.1504 27.6231 15.1502C27.4103 15.15 27.2009 15.2041 27.0146 15.3075L15.6987 21.6026C15.695 21.6064 15.6912 21.6114 15.6849 21.6152L15.6724 21.6203C15.6285 21.6455 15.5959 21.6821 15.5545 21.7124C15.5093 21.7464 15.4617 21.7767 15.4215 21.8158C15.3839 21.8549 15.355 21.9003 15.3224 21.9445C15.2886 21.9886 15.2509 22.0278 15.2233 22.0757C15.1907 22.1299 15.1732 22.1918 15.1493 22.251C15.1318 22.2927 15.1092 22.3318 15.0979 22.3772C15.0762 22.4639 15.064 22.5527 15.0615 22.6421C15.0603 22.6636 15.0527 22.6825 15.0527 22.7052V32.8001C15.0527 33.258 15.2998 33.6806 15.6987 33.9026L26.9606 40.194L26.9619 40.1952L26.9644 40.1965L26.9895 40.2104C27.0434 40.2406 27.1024 40.257 27.1588 40.2785C27.199 40.2949 27.2378 40.3163 27.2805 40.3277C27.4887 40.3817 27.707 40.3817 27.9152 40.3277C27.9566 40.3163 27.9955 40.2949 28.0369 40.2785C28.0933 40.257 28.1523 40.2419 28.2062 40.2104L28.2313 40.1965L28.2338 40.1952L28.2351 40.194L39.497 33.9026C39.8933 33.6806 40.1405 33.258 40.1405 32.8001V22.7052C40.1405 22.6838 40.1329 22.6661 40.1317 22.6446ZM27.5615 27.5924L18.8886 22.714L22.3533 20.7864L30.9257 25.7127L27.5615 27.5924ZM27.6217 17.8546L36.3033 22.7077L33.4884 24.2809L24.921 19.3571L27.6217 17.8546ZM28.851 36.9644L28.8535 29.8001L32.6141 27.6832V31.5385L35.1229 30.277V26.2716L37.6317 24.8599V32.057L28.851 36.9644Z" fill="#FF6E6E"/>
</svg>
