<svg width="56" height="57" viewBox="0 0 56 57" fill="none" xmlns="http://www.w3.org/2000/svg">
<g clip-path="url(#clip0_365_466)">
<path d="M38.677 34.1368C38.5963 34.2184 38.5003 34.2832 38.3946 34.3274C38.2889 34.3716 38.1756 34.3944 38.0611 34.3944C37.9467 34.3944 37.8333 34.3716 37.7276 34.3274C37.6219 34.2832 37.526 34.2184 37.4453 34.1368L36.2135 32.898C36.1324 32.8169 36.0679 32.7203 36.024 32.6141C35.98 32.5078 35.9574 32.3938 35.9574 32.2786C35.9574 32.1635 35.98 32.0495 36.024 31.9432C36.0679 31.8369 36.1324 31.7404 36.2135 31.6593L38.677 29.1817C38.7578 29.1003 38.8538 29.0357 38.9595 28.9916C39.0652 28.9476 39.1785 28.9249 39.2929 28.9249C39.4073 28.9249 39.5206 28.9476 39.6262 28.9916C39.7319 29.0357 39.8279 29.1003 39.9087 29.1817L41.1405 30.4205C41.2216 30.5017 41.2861 30.5982 41.33 30.7045C41.374 30.8108 41.3966 30.9248 41.3966 31.0399C41.3966 31.155 41.374 31.269 41.33 31.3753C41.2861 31.4816 41.2216 31.5781 41.1405 31.6593L38.677 34.1368ZM25.6105 20.9957C25.5298 21.0774 25.4338 21.1422 25.3281 21.1864C25.2224 21.2306 25.1091 21.2533 24.9946 21.2533C24.8801 21.2533 24.7668 21.2306 24.6611 21.1864C24.5554 21.1422 24.4595 21.0774 24.3787 20.9957L23.147 19.757C23.0658 19.6758 23.0014 19.5793 22.9575 19.473C22.9135 19.3667 22.8909 19.2527 22.8909 19.1376C22.8909 19.0225 22.9135 18.9085 22.9575 18.8022C23.0014 18.6959 23.0658 18.5994 23.147 18.5182L25.6105 16.0407C25.6913 15.9593 25.7873 15.8947 25.893 15.8506C25.9987 15.8065 26.1119 15.7838 26.2263 15.7838C26.3408 15.7838 26.454 15.8065 26.5597 15.8506C26.6654 15.8947 26.7614 15.9593 26.8422 16.0407L28.074 17.2794C28.1551 17.3606 28.2195 17.4571 28.2635 17.5634C28.3075 17.6697 28.3301 17.7837 28.3301 17.8988C28.3301 18.0139 28.3075 18.1279 28.2635 18.2342C28.2195 18.3405 28.1551 18.437 28.074 18.5182L25.6105 20.9957Z" fill="#66757F"/>
<path d="M14.2861 32.5353C16.0283 32.5353 23.8682 33.4114 23.8682 33.4114C23.8682 33.4114 24.7393 41.296 24.7393 43.0482C24.7393 44.8003 22.9971 44.8003 22.126 43.9242C21.2549 43.0482 18.6416 38.6678 18.6416 38.6678C18.6416 38.6678 14.2861 36.0396 13.415 35.1635C12.5439 34.2875 12.5439 32.5353 14.2861 32.5353ZM16.0283 18.5524C18.6416 18.5182 37.8058 19.3943 37.8058 19.3943C37.8058 19.3943 38.6107 38.6678 38.6438 41.296C38.6769 43.9242 36.2369 44.8021 35.2796 41.2969C34.3223 37.7917 30.837 26.4028 30.837 26.4028C30.837 26.4028 18.6808 22.5332 16.0239 21.9331C12.5439 21.1464 13.4141 18.5857 16.0283 18.5524Z" fill="#55ACEE"/>
<path d="M36.0637 15.89C37.8059 14.1379 42.1614 13.2618 43.0325 14.1379C43.9036 15.0139 43.0325 19.3943 41.2903 21.1464C39.5481 22.8986 24.7394 36.9157 24.7394 36.9157C24.7394 36.9157 19.0772 40.858 17.7706 39.5439C16.4639 38.2298 20.3839 32.5354 20.3839 32.5354C20.3839 32.5354 34.3215 17.6422 36.0637 15.89Z" fill="#CCD6DD"/>
<path d="M24.7393 32.5354C24.7393 32.5354 25.1749 32.9734 21.2549 36.9157C17.335 40.858 16.8994 40.42 16.8994 40.42C16.8994 40.42 16.4639 39.982 20.3838 36.0396C24.3038 32.0973 24.7393 32.5354 24.7393 32.5354ZM37.8058 16.7661C38.4989 16.7661 39.1636 17.043 39.6537 17.5359C40.1438 18.0288 40.4191 18.6973 40.4191 19.3943H41.1204C41.2197 19.1183 41.2902 18.8292 41.2902 18.5182C41.2902 17.8212 41.0149 17.1527 40.5248 16.6598C40.0347 16.1669 39.37 15.89 38.6769 15.89C38.3677 15.89 38.0802 15.961 37.8058 16.0608V16.7661Z" fill="#66757F"/>
</g>
<rect opacity="0.08" y="0.646362" width="55.193" height="55.5078" rx="3" fill="#0A5DFF"/>
<defs>
<clipPath id="clip0_365_466">
<rect width="31.3596" height="31.5385" fill="white" transform="translate(12.5439 13.2618)"/>
</clipPath>
</defs>
</svg>
