<svg width="24" height="24" viewBox="0 0 24 24" fill="none" xmlns="http://www.w3.org/2000/svg">
<path fill-rule="evenodd" clip-rule="evenodd" d="M12 15C12.5523 15 13 14.5523 13 14V9.00001C13 8.44772 12.5523 8.00001 12 8.00001C11.4477 8.00001 11 8.44772 11 9.00001V14C11 14.5523 11.4477 15 12 15Z" fill="#808191"/>
<path fill-rule="evenodd" clip-rule="evenodd" d="M19.6739 17.5044L12.8689 5.56347C12.4852 4.8903 11.5149 4.89031 11.1312 5.56347L4.32627 17.5044C3.94636 18.1711 4.42779 18.9996 5.1951 18.9996H18.8051C19.5724 18.9996 20.0538 18.1711 19.6739 17.5044ZM14.6065 4.57321C13.4556 2.55372 10.5445 2.55372 9.3936 4.57321L2.58863 16.5142C1.44889 18.5141 2.89318 20.9996 5.1951 20.9996H18.8051C21.107 20.9996 22.5513 18.5141 21.4115 16.5142L14.6065 4.57321Z" fill="#808191"/>
<path d="M13 17C13 17.5523 12.5523 18 12 18C11.4477 18 11 17.5523 11 17C11 16.4477 11.4477 16 12 16C12.5523 16 13 16.4477 13 17Z" fill="#808191"/>
</svg>
