<svg width="16" height="16" viewBox="0 0 16 16" fill="none" xmlns="http://www.w3.org/2000/svg">
<g opacity="0.8">
<path d="M0.666504 11.3332V13.3332C0.666504 13.7014 0.964981 13.9998 1.33317 13.9998H10.6665C11.0347 13.9998 11.3332 13.7014 11.3332 13.3332V11.3332C11.3332 9.86041 10.1393 8.6665 8.6665 8.6665H3.33317C1.86041 8.6665 0.666504 9.86041 0.666504 11.3332Z" fill="#808191"/>
<path d="M12.6665 13.3332C12.6665 13.6648 12.9006 13.9998 13.2322 13.9998H14.6665C15.0347 13.9998 15.3331 13.7014 15.3331 13.3332V11.3332C15.3331 9.86041 14.1392 8.6665 12.6665 8.6665H12.2072C11.9911 8.6665 11.8704 8.92832 11.9908 9.1078C12.4175 9.74402 12.6665 10.5095 12.6665 11.3332V13.3332V13.3332Z" fill="#808191"/>
<path d="M8.66683 4.66667C8.66683 6.13943 7.47292 7.33333 6.00016 7.33333C4.5274 7.33333 3.3335 6.13943 3.3335 4.66667C3.3335 3.19391 4.5274 2 6.00016 2C7.47292 2 8.66683 3.19391 8.66683 4.66667Z" fill="#808191"/>
<path d="M9.80144 7.32605C9.45712 7.30069 9.33868 6.89744 9.50537 6.5951C9.82067 6.02321 10.0001 5.36589 10.0001 4.66667C10.0001 3.96744 9.82067 3.31013 9.50537 2.73823C9.33868 2.43589 9.45712 2.03264 9.80144 2.00729C9.86702 2.00246 9.93326 2 10.0001 2C11.4728 2 12.6667 3.19391 12.6667 4.66667C12.6667 6.13943 11.4728 7.33333 10.0001 7.33333C9.93326 7.33333 9.86702 7.33088 9.80144 7.32605Z" fill="#808191"/>
</g>
</svg>
