<svg width="16" height="16" viewBox="0 0 16 16" fill="none" xmlns="http://www.w3.org/2000/svg">
<g opacity="0.8">
<path fill-rule="evenodd" clip-rule="evenodd" d="M8.00003 13.9998C7.8227 13.9998 7.65336 13.9298 7.52803 13.8038L2.35003 8.61717C0.992698 7.25717 0.992698 5.0445 2.35003 3.6845C3.00536 3.0285 3.8807 2.6665 4.81336 2.6665C5.74603 2.6665 6.62136 3.0285 7.2767 3.6845L8.00003 4.40917L8.7227 3.68517C9.3787 3.0285 10.254 2.6665 11.1867 2.6665C12.1194 2.6665 12.9947 3.0285 13.65 3.6845C15.0074 5.0445 15.0074 7.25717 13.6507 8.61717L8.47203 13.8045C8.3467 13.9298 8.17736 13.9998 8.00003 13.9998Z" fill="#757D8A"/>
</g>
</svg>
